<svg width="2401" height="632" viewBox="0 0 2401 632" fill="none" xmlns="http://www.w3.org/2000/svg">
<rect x="60.5781" y="3" width="2337.42" height="597.339" rx="72" fill="#A66968" stroke="#5F1731" stroke-width="6"/>
<rect y="28.6606" width="2343.42" height="603.339" rx="75" fill="#FFD3B9"/>
<rect y="28.6606" width="2343.42" height="603.339" rx="75" stroke="#5F1731"/>
<path d="M2200.27 58.0336H1752.16C1886.17 65.019 2167 82.593 2218.3 97.0051C2282.43 115.02 2256.59 422.749 2290.09 269.436C2313.4 162.748 2268.4 96.36 2233.19 68.1426C2223.96 60.7467 2212.1 58.0336 2200.27 58.0336Z" fill="#DB9F95"/>
<path d="M102.466 580.712L328.445 580.712C255.308 573.989 102.032 557.074 74.0313 543.203C39.0298 525.863 53.1349 229.68 34.8505 377.241C23.8917 465.682 40.5936 525.35 57.7158 557.554C66.2752 573.653 84.2328 580.712 102.466 580.712Z" fill="#DB9F95"/>
<path d="M187.1 265.2C181.567 265.2 176.467 264.333 171.8 262.6C167.2 260.8 163.167 258.267 159.7 255C156.3 251.733 153.633 247.9 151.7 243.5C149.833 239.1 148.9 234.267 148.9 229C148.9 223.733 149.833 218.9 151.7 214.5C153.633 210.1 156.333 206.267 159.8 203C163.267 199.733 167.333 197.233 172 195.5C176.667 193.7 181.8 192.8 187.4 192.8C193.6 192.8 199.167 193.833 204.1 195.9C209.1 197.967 213.3 200.967 216.7 204.9L206.3 214.5C203.767 211.833 201 209.867 198 208.6C195 207.267 191.733 206.6 188.2 206.6C184.8 206.6 181.7 207.133 178.9 208.2C176.1 209.267 173.667 210.8 171.6 212.8C169.6 214.8 168.033 217.167 166.9 219.9C165.833 222.633 165.3 225.667 165.3 229C165.3 232.267 165.833 235.267 166.9 238C168.033 240.733 169.6 243.133 171.6 245.2C173.667 247.2 176.067 248.733 178.8 249.8C181.6 250.867 184.667 251.4 188 251.4C191.2 251.4 194.3 250.9 197.3 249.9C200.367 248.833 203.333 247.067 206.2 244.6L215.4 256.3C211.6 259.167 207.167 261.367 202.1 262.9C197.1 264.433 192.1 265.2 187.1 265.2ZM200.6 254.2V227.9H215.4V256.3L200.6 254.2ZM254.948 264.8C249.215 264.8 244.115 263.6 239.648 261.2C235.248 258.8 231.748 255.533 229.148 251.4C226.615 247.2 225.348 242.433 225.348 237.1C225.348 231.7 226.615 226.933 229.148 222.8C231.748 218.6 235.248 215.333 239.648 213C244.115 210.6 249.215 209.4 254.948 209.4C260.615 209.4 265.682 210.6 270.148 213C274.615 215.333 278.115 218.567 280.648 222.7C283.182 226.833 284.448 231.633 284.448 237.1C284.448 242.433 283.182 247.2 280.648 251.4C278.115 255.533 274.615 258.8 270.148 261.2C265.682 263.6 260.615 264.8 254.948 264.8ZM254.948 252C257.548 252 259.882 251.4 261.948 250.2C264.015 249 265.648 247.3 266.848 245.1C268.048 242.833 268.648 240.167 268.648 237.1C268.648 233.967 268.048 231.3 266.848 229.1C265.648 226.9 264.015 225.2 261.948 224C259.882 222.8 257.548 222.2 254.948 222.2C252.348 222.2 250.015 222.8 247.948 224C245.882 225.2 244.215 226.9 242.948 229.1C241.748 231.3 241.148 233.967 241.148 237.1C241.148 240.167 241.748 242.833 242.948 245.1C244.215 247.3 245.882 249 247.948 250.2C250.015 251.4 252.348 252 254.948 252ZM345.196 264.8C338.863 264.8 333.929 263.2 330.396 260C326.863 256.733 325.096 251.9 325.096 245.5V198.3H340.696V245.3C340.696 247.567 341.296 249.333 342.496 250.6C343.696 251.8 345.329 252.4 347.396 252.4C349.863 252.4 351.963 251.733 353.696 250.4L357.896 261.4C356.296 262.533 354.363 263.4 352.096 264C349.896 264.533 347.596 264.8 345.196 264.8ZM316.796 223.4V211.4H354.096V223.4H316.796ZM390.593 264.8C384.86 264.8 379.76 263.6 375.293 261.2C370.893 258.8 367.393 255.533 364.793 251.4C362.26 247.2 360.993 242.433 360.993 237.1C360.993 231.7 362.26 226.933 364.793 222.8C367.393 218.6 370.893 215.333 375.293 213C379.76 210.6 384.86 209.4 390.593 209.4C396.26 209.4 401.326 210.6 405.793 213C410.26 215.333 413.76 218.567 416.293 222.7C418.826 226.833 420.093 231.633 420.093 237.1C420.093 242.433 418.826 247.2 416.293 251.4C413.76 255.533 410.26 258.8 405.793 261.2C401.326 263.6 396.26 264.8 390.593 264.8ZM390.593 252C393.193 252 395.526 251.4 397.593 250.2C399.66 249 401.293 247.3 402.493 245.1C403.693 242.833 404.293 240.167 404.293 237.1C404.293 233.967 403.693 231.3 402.493 229.1C401.293 226.9 399.66 225.2 397.593 224C395.526 222.8 393.193 222.2 390.593 222.2C387.993 222.2 385.66 222.8 383.593 224C381.526 225.2 379.86 226.9 378.593 229.1C377.393 231.3 376.793 233.967 376.793 237.1C376.793 240.167 377.393 242.833 378.593 245.1C379.86 247.3 381.526 249 383.593 250.2C385.66 251.4 387.993 252 390.593 252ZM459.941 264V194H490.241C496.507 194 501.907 195.033 506.441 197.1C510.974 199.1 514.474 202 516.941 205.8C519.407 209.6 520.641 214.133 520.641 219.4C520.641 224.6 519.407 229.1 516.941 232.9C514.474 236.633 510.974 239.5 506.441 241.5C501.907 243.5 496.507 244.5 490.241 244.5H468.941L476.141 237.4V264H459.941ZM504.441 264L486.941 238.6H504.241L521.941 264H504.441ZM476.141 239.2L468.941 231.6H489.341C494.341 231.6 498.074 230.533 500.541 228.4C503.007 226.2 504.241 223.2 504.241 219.4C504.241 215.533 503.007 212.533 500.541 210.4C498.074 208.267 494.341 207.2 489.341 207.2H468.941L476.141 199.5V239.2ZM564.888 264V253.5L563.888 251.2V232.4C563.888 229.067 562.854 226.467 560.788 224.6C558.788 222.733 555.688 221.8 551.488 221.8C548.621 221.8 545.788 222.267 542.988 223.2C540.254 224.067 537.921 225.267 535.988 226.8L530.388 215.9C533.321 213.833 536.854 212.233 540.988 211.1C545.121 209.967 549.321 209.4 553.588 209.4C561.788 209.4 568.154 211.333 572.688 215.2C577.221 219.067 579.488 225.1 579.488 233.3V264H564.888ZM548.488 264.8C544.288 264.8 540.688 264.1 537.688 262.7C534.688 261.233 532.388 259.267 530.788 256.8C529.188 254.333 528.388 251.567 528.388 248.5C528.388 245.3 529.154 242.5 530.688 240.1C532.288 237.7 534.788 235.833 538.188 234.5C541.588 233.1 546.021 232.4 551.488 232.4H565.788V241.5H553.188C549.521 241.5 546.988 242.1 545.588 243.3C544.254 244.5 543.588 246 543.588 247.8C543.588 249.8 544.354 251.4 545.888 252.6C547.488 253.733 549.654 254.3 552.388 254.3C554.988 254.3 557.321 253.7 559.388 252.5C561.454 251.233 562.954 249.4 563.888 247L566.288 254.2C565.154 257.667 563.088 260.3 560.088 262.1C557.088 263.9 553.221 264.8 548.488 264.8ZM599.43 284.2C596.63 284.2 593.863 283.767 591.13 282.9C588.396 282.033 586.163 280.833 584.43 279.3L590.13 268.2C591.33 269.267 592.696 270.1 594.23 270.7C595.83 271.3 597.396 271.6 598.93 271.6C601.13 271.6 602.863 271.067 604.13 270C605.463 269 606.663 267.3 607.73 264.9L610.53 258.3L611.73 256.6L631.03 210.2H646.03L621.73 267.3C619.996 271.633 617.996 275.033 615.73 277.5C613.53 279.967 611.063 281.7 608.33 282.7C605.663 283.7 602.696 284.2 599.43 284.2ZM608.63 266.1L584.63 210.2H600.73L619.33 255.2L608.63 266.1ZM674.03 264.8C668.964 264.8 664.397 263.667 660.33 261.4C656.264 259.067 653.03 255.833 650.63 251.7C648.297 247.567 647.13 242.7 647.13 237.1C647.13 231.433 648.297 226.533 650.63 222.4C653.03 218.267 656.264 215.067 660.33 212.8C664.397 210.533 668.964 209.4 674.03 209.4C678.564 209.4 682.53 210.4 685.93 212.4C689.33 214.4 691.964 217.433 693.83 221.5C695.697 225.567 696.63 230.767 696.63 237.1C696.63 243.367 695.73 248.567 693.93 252.7C692.13 256.767 689.53 259.8 686.13 261.8C682.797 263.8 678.764 264.8 674.03 264.8ZM676.73 252C679.264 252 681.564 251.4 683.63 250.2C685.697 249 687.33 247.3 688.53 245.1C689.797 242.833 690.43 240.167 690.43 237.1C690.43 233.967 689.797 231.3 688.53 229.1C687.33 226.9 685.697 225.2 683.63 224C681.564 222.8 679.264 222.2 676.73 222.2C674.13 222.2 671.797 222.8 669.73 224C667.664 225.2 665.997 226.9 664.73 229.1C663.53 231.3 662.93 233.967 662.93 237.1C662.93 240.167 663.53 242.833 664.73 245.1C665.997 247.3 667.664 249 669.73 250.2C671.797 251.4 674.13 252 676.73 252ZM690.83 264V253L691.13 237L690.13 221.1V189.8H705.73V264H690.83ZM720.169 264V210.2H735.769V264H720.169ZM727.969 202.7C725.102 202.7 722.769 201.867 720.969 200.2C719.169 198.533 718.269 196.467 718.269 194C718.269 191.533 719.169 189.467 720.969 187.8C722.769 186.133 725.102 185.3 727.969 185.3C730.835 185.3 733.169 186.1 734.969 187.7C736.769 189.233 737.669 191.233 737.669 193.7C737.669 196.3 736.769 198.467 734.969 200.2C733.235 201.867 730.902 202.7 727.969 202.7ZM772.947 264.8C768.48 264.8 764.48 263.933 760.947 262.2C757.48 260.467 754.78 257.833 752.847 254.3C750.914 250.7 749.947 246.133 749.947 240.6V210.2H765.547V238.3C765.547 242.767 766.48 246.067 768.347 248.2C770.28 250.267 772.98 251.3 776.447 251.3C778.847 251.3 780.98 250.8 782.847 249.8C784.714 248.733 786.18 247.133 787.247 245C788.314 242.8 788.847 240.067 788.847 236.8V210.2H804.447V264H789.647V249.2L792.347 253.5C790.547 257.233 787.88 260.067 784.347 262C780.88 263.867 777.08 264.8 772.947 264.8ZM887.799 209.4C892.066 209.4 895.833 210.267 899.099 212C902.433 213.667 905.033 216.267 906.899 219.8C908.833 223.267 909.799 227.733 909.799 233.2V264H894.199V235.6C894.199 231.267 893.299 228.067 891.499 226C889.699 223.933 887.166 222.9 883.899 222.9C881.633 222.9 879.599 223.433 877.799 224.5C875.999 225.5 874.599 227.033 873.599 229.1C872.599 231.167 872.099 233.8 872.099 237V264H856.499V235.6C856.499 231.267 855.599 228.067 853.799 226C852.066 223.933 849.566 222.9 846.299 222.9C844.033 222.9 841.999 223.433 840.199 224.5C838.399 225.5 836.999 227.033 835.999 229.1C834.999 231.167 834.499 233.8 834.499 237V264H818.899V210.2H833.799V224.9L830.999 220.6C832.866 216.933 835.499 214.167 838.899 212.3C842.366 210.367 846.299 209.4 850.699 209.4C855.633 209.4 859.933 210.667 863.599 213.2C867.333 215.667 869.799 219.467 870.999 224.6L865.499 223.1C867.299 218.9 870.166 215.567 874.099 213.1C878.099 210.633 882.666 209.4 887.799 209.4Z" fill="#460036"/>
<path d="M166.05 384.3C163.383 384.3 160.917 383.867 158.65 383C156.417 382.1 154.467 380.85 152.8 379.25C151.167 377.65 149.883 375.767 148.95 373.6C148.05 371.433 147.6 369.067 147.6 366.5C147.6 363.933 148.05 361.567 148.95 359.4C149.883 357.233 151.183 355.35 152.85 353.75C154.517 352.15 156.467 350.917 158.7 350.05C160.967 349.15 163.433 348.7 166.1 348.7C168.767 348.7 171.2 349.117 173.4 349.95C175.633 350.783 177.533 352.05 179.1 353.75L176.8 356.1C175.333 354.633 173.717 353.583 171.95 352.95C170.183 352.317 168.283 352 166.25 352C164.083 352 162.083 352.367 160.25 353.1C158.45 353.8 156.867 354.817 155.5 356.15C154.167 357.45 153.117 358.983 152.35 360.75C151.617 362.483 151.25 364.4 151.25 366.5C151.25 368.567 151.617 370.483 152.35 372.25C153.117 374.017 154.167 375.567 155.5 376.9C156.867 378.2 158.45 379.217 160.25 379.95C162.083 380.65 164.067 381 166.2 381C168.2 381 170.083 380.7 171.85 380.1C173.65 379.5 175.3 378.483 176.8 377.05L178.9 379.85C177.233 381.317 175.283 382.433 173.05 383.2C170.817 383.933 168.483 384.3 166.05 384.3ZM175.35 379.4V366.5H178.9V379.85L175.35 379.4ZM199.322 384.25C196.789 384.25 194.505 383.683 192.472 382.55C190.472 381.383 188.889 379.8 187.722 377.8C186.555 375.767 185.972 373.45 185.972 370.85C185.972 368.217 186.555 365.9 187.722 363.9C188.889 361.9 190.472 360.333 192.472 359.2C194.472 358.067 196.755 357.5 199.322 357.5C201.922 357.5 204.222 358.067 206.222 359.2C208.255 360.333 209.839 361.9 210.972 363.9C212.139 365.9 212.722 368.217 212.722 370.85C212.722 373.45 212.139 375.767 210.972 377.8C209.839 379.8 208.255 381.383 206.222 382.55C204.189 383.683 201.889 384.25 199.322 384.25ZM199.322 381.1C201.222 381.1 202.905 380.683 204.372 379.85C205.839 378.983 206.989 377.783 207.822 376.25C208.689 374.683 209.122 372.883 209.122 370.85C209.122 368.783 208.689 366.983 207.822 365.45C206.989 363.917 205.839 362.733 204.372 361.9C202.905 361.033 201.239 360.6 199.372 360.6C197.505 360.6 195.839 361.033 194.372 361.9C192.905 362.733 191.739 363.917 190.872 365.45C190.005 366.983 189.572 368.783 189.572 370.85C189.572 372.883 190.005 374.683 190.872 376.25C191.739 377.783 192.905 378.983 194.372 379.85C195.839 380.683 197.489 381.1 199.322 381.1ZM241.355 384.25C238.889 384.25 236.989 383.583 235.655 382.25C234.322 380.917 233.655 379.033 233.655 376.6V351.95H237.205V376.4C237.205 377.933 237.589 379.117 238.355 379.95C239.155 380.783 240.289 381.2 241.755 381.2C243.322 381.2 244.622 380.75 245.655 379.85L246.905 382.4C246.205 383.033 245.355 383.5 244.355 383.8C243.389 384.1 242.389 384.25 241.355 384.25ZM228.955 360.7V357.75H245.205V360.7H228.955ZM263.14 384.25C260.607 384.25 258.324 383.683 256.29 382.55C254.29 381.383 252.707 379.8 251.54 377.8C250.374 375.767 249.79 373.45 249.79 370.85C249.79 368.217 250.374 365.9 251.54 363.9C252.707 361.9 254.29 360.333 256.29 359.2C258.29 358.067 260.574 357.5 263.14 357.5C265.74 357.5 268.04 358.067 270.04 359.2C272.074 360.333 273.657 361.9 274.79 363.9C275.957 365.9 276.54 368.217 276.54 370.85C276.54 373.45 275.957 375.767 274.79 377.8C273.657 379.8 272.074 381.383 270.04 382.55C268.007 383.683 265.707 384.25 263.14 384.25ZM263.14 381.1C265.04 381.1 266.724 380.683 268.19 379.85C269.657 378.983 270.807 377.783 271.64 376.25C272.507 374.683 272.94 372.883 272.94 370.85C272.94 368.783 272.507 366.983 271.64 365.45C270.807 363.917 269.657 362.733 268.19 361.9C266.724 361.033 265.057 360.6 263.19 360.6C261.324 360.6 259.657 361.033 258.19 361.9C256.724 362.733 255.557 363.917 254.69 365.45C253.824 366.983 253.39 368.783 253.39 370.85C253.39 372.883 253.824 374.683 254.69 376.25C255.557 377.783 256.724 378.983 258.19 379.85C259.657 380.683 261.307 381.1 263.14 381.1ZM297.624 384V349H310.724C313.69 349 316.24 349.483 318.374 350.45C320.507 351.383 322.14 352.75 323.274 354.55C324.44 356.317 325.024 358.467 325.024 361C325.024 363.467 324.44 365.6 323.274 367.4C322.14 369.167 320.507 370.533 318.374 371.5C316.24 372.433 313.69 372.9 310.724 372.9H299.674L301.324 371.2V384H297.624ZM321.524 384L312.524 371.3H316.524L325.574 384H321.524ZM301.324 371.5L299.674 369.75H310.624C314.124 369.75 316.774 368.983 318.574 367.45C320.407 365.917 321.324 363.767 321.324 361C321.324 358.2 320.407 356.033 318.574 354.5C316.774 352.967 314.124 352.2 310.624 352.2H299.674L301.324 350.45V371.5ZM349.213 384V378.2L349.063 377.25V367.55C349.063 365.317 348.429 363.6 347.163 362.4C345.929 361.2 344.079 360.6 341.613 360.6C339.913 360.6 338.296 360.883 336.763 361.45C335.229 362.017 333.929 362.767 332.863 363.7L331.263 361.05C332.596 359.917 334.196 359.05 336.063 358.45C337.929 357.817 339.896 357.5 341.963 357.5C345.363 357.5 347.979 358.35 349.813 360.05C351.679 361.717 352.613 364.267 352.613 367.7V384H349.213ZM340.163 384.25C338.196 384.25 336.479 383.933 335.013 383.3C333.579 382.633 332.479 381.733 331.713 380.6C330.946 379.433 330.563 378.1 330.563 376.6C330.563 375.233 330.879 374 331.513 372.9C332.179 371.767 333.246 370.867 334.713 370.2C336.213 369.5 338.213 369.15 340.713 369.15H349.763V371.8H340.813C338.279 371.8 336.513 372.25 335.513 373.15C334.546 374.05 334.062 375.167 334.062 376.5C334.062 378 334.646 379.2 335.813 380.1C336.979 381 338.613 381.45 340.713 381.45C342.713 381.45 344.429 381 345.863 380.1C347.329 379.167 348.396 377.833 349.063 376.1L349.863 378.55C349.196 380.283 348.029 381.667 346.363 382.7C344.729 383.733 342.663 384.25 340.163 384.25ZM361.966 393.95C360.733 393.95 359.55 393.75 358.416 393.35C357.316 392.95 356.366 392.35 355.566 391.55L357.216 388.9C357.883 389.533 358.6 390.017 359.366 390.35C360.166 390.717 361.05 390.9 362.016 390.9C363.183 390.9 364.183 390.567 365.016 389.9C365.883 389.267 366.7 388.133 367.466 386.5L369.166 382.65L369.566 382.1L380.366 357.75H383.866L370.716 387.15C369.983 388.85 369.166 390.2 368.266 391.2C367.4 392.2 366.45 392.9 365.416 393.3C364.383 393.733 363.233 393.95 361.966 393.95ZM368.966 384.75L356.866 357.75H360.566L371.266 381.85L368.966 384.75ZM398.584 384.25C396.084 384.25 393.834 383.683 391.834 382.55C389.867 381.417 388.317 379.85 387.184 377.85C386.05 375.817 385.484 373.483 385.484 370.85C385.484 368.183 386.05 365.85 387.184 363.85C388.317 361.85 389.867 360.3 391.834 359.2C393.834 358.067 396.084 357.5 398.584 357.5C400.884 357.5 402.934 358.017 404.734 359.05C406.567 360.083 408.017 361.6 409.084 363.6C410.184 365.567 410.734 367.983 410.734 370.85C410.734 373.683 410.2 376.1 409.134 378.1C408.067 380.1 406.617 381.633 404.784 382.7C402.984 383.733 400.917 384.25 398.584 384.25ZM398.834 381.1C400.7 381.1 402.367 380.683 403.834 379.85C405.334 378.983 406.5 377.783 407.334 376.25C408.2 374.683 408.634 372.883 408.634 370.85C408.634 368.783 408.2 366.983 407.334 365.45C406.5 363.917 405.334 362.733 403.834 361.9C402.367 361.033 400.7 360.6 398.834 360.6C397 360.6 395.35 361.033 393.884 361.9C392.417 362.733 391.25 363.917 390.384 365.45C389.517 366.983 389.084 368.783 389.084 370.85C389.084 372.883 389.517 374.683 390.384 376.25C391.25 377.783 392.417 378.983 393.884 379.85C395.35 380.683 397 381.1 398.834 381.1ZM408.734 384V376.1L409.084 370.8L408.584 365.5V346.9H412.134V384H408.734ZM422.02 384V357.75H425.57V384H422.02ZM423.82 351.95C423.087 351.95 422.47 351.7 421.97 351.2C421.47 350.7 421.22 350.1 421.22 349.4C421.22 348.7 421.47 348.117 421.97 347.65C422.47 347.15 423.087 346.9 423.82 346.9C424.554 346.9 425.17 347.133 425.67 347.6C426.17 348.067 426.42 348.65 426.42 349.35C426.42 350.083 426.17 350.7 425.67 351.2C425.204 351.7 424.587 351.95 423.82 351.95ZM446.298 384.25C444.065 384.25 442.115 383.833 440.448 383C438.781 382.167 437.481 380.917 436.548 379.25C435.648 377.583 435.198 375.5 435.198 373V357.75H438.748V372.6C438.748 375.4 439.431 377.517 440.798 378.95C442.198 380.35 444.148 381.05 446.648 381.05C448.481 381.05 450.065 380.683 451.398 379.95C452.765 379.183 453.798 378.083 454.498 376.65C455.231 375.217 455.598 373.5 455.598 371.5V357.75H459.148V384H455.748V376.8L456.298 378.1C455.465 380.033 454.165 381.55 452.398 382.65C450.665 383.717 448.631 384.25 446.298 384.25ZM501.842 357.5C503.975 357.5 505.825 357.917 507.392 358.75C508.992 359.55 510.225 360.783 511.092 362.45C511.992 364.117 512.442 366.217 512.442 368.75V384H508.892V369.1C508.892 366.333 508.225 364.25 506.892 362.85C505.592 361.417 503.742 360.7 501.342 360.7C499.542 360.7 497.975 361.083 496.642 361.85C495.342 362.583 494.325 363.667 493.592 365.1C492.892 366.5 492.542 368.2 492.542 370.2V384H488.992V369.1C488.992 366.333 488.325 364.25 486.992 362.85C485.658 361.417 483.792 360.7 481.392 360.7C479.625 360.7 478.075 361.083 476.742 361.85C475.408 362.583 474.375 363.667 473.642 365.1C472.942 366.5 472.592 368.2 472.592 370.2V384H469.042V357.75H472.442V364.85L471.892 363.6C472.692 361.7 473.975 360.217 475.742 359.15C477.542 358.05 479.658 357.5 482.092 357.5C484.658 357.5 486.842 358.15 488.642 359.45C490.442 360.717 491.608 362.633 492.142 365.2L490.742 364.65C491.508 362.517 492.858 360.8 494.792 359.5C496.758 358.167 499.108 357.5 501.842 357.5ZM545.855 384.25C543.322 384.25 541.038 383.683 539.005 382.55C537.005 381.383 535.422 379.8 534.255 377.8C533.088 375.767 532.505 373.45 532.505 370.85C532.505 368.217 533.088 365.9 534.255 363.9C535.422 361.9 537.005 360.333 539.005 359.2C541.005 358.067 543.288 357.5 545.855 357.5C548.455 357.5 550.755 358.067 552.755 359.2C554.788 360.333 556.372 361.9 557.505 363.9C558.672 365.9 559.255 368.217 559.255 370.85C559.255 373.45 558.672 375.767 557.505 377.8C556.372 379.8 554.788 381.383 552.755 382.55C550.722 383.683 548.422 384.25 545.855 384.25ZM545.855 381.1C547.755 381.1 549.438 380.683 550.905 379.85C552.372 378.983 553.522 377.783 554.355 376.25C555.222 374.683 555.655 372.883 555.655 370.85C555.655 368.783 555.222 366.983 554.355 365.45C553.522 363.917 552.372 362.733 550.905 361.9C549.438 361.033 547.772 360.6 545.905 360.6C544.038 360.6 542.372 361.033 540.905 361.9C539.438 362.733 538.272 363.917 537.405 365.45C536.538 366.983 536.105 368.783 536.105 370.85C536.105 372.883 536.538 374.683 537.405 376.25C538.272 377.783 539.438 378.983 540.905 379.85C542.372 380.683 544.022 381.1 545.855 381.1ZM566.503 384V357.75H569.903V364.9L569.553 363.65C570.286 361.65 571.519 360.133 573.253 359.1C574.986 358.033 577.136 357.5 579.703 357.5V360.95C579.569 360.95 579.436 360.95 579.303 360.95C579.169 360.917 579.036 360.9 578.903 360.9C576.136 360.9 573.969 361.75 572.403 363.45C570.836 365.117 570.053 367.5 570.053 370.6V384H566.503ZM616.107 384V378.2L615.957 377.25V367.55C615.957 365.317 615.324 363.6 614.057 362.4C612.824 361.2 610.974 360.6 608.507 360.6C606.807 360.6 605.19 360.883 603.657 361.45C602.124 362.017 600.824 362.767 599.757 363.7L598.157 361.05C599.49 359.917 601.09 359.05 602.957 358.45C604.824 357.817 606.79 357.5 608.857 357.5C612.257 357.5 614.874 358.35 616.707 360.05C618.574 361.717 619.507 364.267 619.507 367.7V384H616.107ZM607.057 384.25C605.09 384.25 603.374 383.933 601.907 383.3C600.474 382.633 599.374 381.733 598.607 380.6C597.84 379.433 597.457 378.1 597.457 376.6C597.457 375.233 597.774 374 598.407 372.9C599.074 371.767 600.14 370.867 601.607 370.2C603.107 369.5 605.107 369.15 607.607 369.15H616.657V371.8H607.707C605.174 371.8 603.407 372.25 602.407 373.15C601.44 374.05 600.957 375.167 600.957 376.5C600.957 378 601.54 379.2 602.707 380.1C603.874 381 605.507 381.45 607.607 381.45C609.607 381.45 611.324 381 612.757 380.1C614.224 379.167 615.29 377.833 615.957 376.1L616.757 378.55C616.09 380.283 614.924 381.667 613.257 382.7C611.624 383.733 609.557 384.25 607.057 384.25ZM642.549 357.5C644.683 357.5 646.549 357.917 648.149 358.75C649.783 359.55 651.049 360.783 651.949 362.45C652.883 364.117 653.349 366.217 653.349 368.75V384H649.799V369.1C649.799 366.333 649.099 364.25 647.699 362.85C646.333 361.417 644.399 360.7 641.899 360.7C640.033 360.7 638.399 361.083 636.999 361.85C635.633 362.583 634.566 363.667 633.799 365.1C633.066 366.5 632.699 368.2 632.699 370.2V384H629.149V357.75H632.549V364.95L631.999 363.6C632.833 361.7 634.166 360.217 635.999 359.15C637.833 358.05 640.016 357.5 642.549 357.5ZM662.65 393.95C661.417 393.95 660.233 393.75 659.1 393.35C658 392.95 657.05 392.35 656.25 391.55L657.9 388.9C658.567 389.533 659.283 390.017 660.05 390.35C660.85 390.717 661.733 390.9 662.7 390.9C663.867 390.9 664.867 390.567 665.7 389.9C666.567 389.267 667.383 388.133 668.15 386.5L669.85 382.65L670.25 382.1L681.05 357.75H684.55L671.4 387.15C670.667 388.85 669.85 390.2 668.95 391.2C668.083 392.2 667.133 392.9 666.1 393.3C665.067 393.733 663.917 393.95 662.65 393.95ZM669.65 384.75L657.55 357.75H661.25L671.95 381.85L669.65 384.75ZM713.336 384.25C710.802 384.25 708.519 383.683 706.486 382.55C704.486 381.383 702.902 379.8 701.736 377.8C700.569 375.767 699.986 373.45 699.986 370.85C699.986 368.217 700.569 365.9 701.736 363.9C702.902 361.9 704.486 360.333 706.486 359.2C708.486 358.067 710.769 357.5 713.336 357.5C715.936 357.5 718.236 358.067 720.236 359.2C722.269 360.333 723.852 361.9 724.986 363.9C726.152 365.9 726.736 368.217 726.736 370.85C726.736 373.45 726.152 375.767 724.986 377.8C723.852 379.8 722.269 381.383 720.236 382.55C718.202 383.683 715.902 384.25 713.336 384.25ZM713.336 381.1C715.236 381.1 716.919 380.683 718.386 379.85C719.852 378.983 721.002 377.783 721.836 376.25C722.702 374.683 723.136 372.883 723.136 370.85C723.136 368.783 722.702 366.983 721.836 365.45C721.002 363.917 719.852 362.733 718.386 361.9C716.919 361.033 715.252 360.6 713.386 360.6C711.519 360.6 709.852 361.033 708.386 361.9C706.919 362.733 705.752 363.917 704.886 365.45C704.019 366.983 703.586 368.783 703.586 370.85C703.586 372.883 704.019 374.683 704.886 376.25C705.752 377.783 706.919 378.983 708.386 379.85C709.852 380.683 711.502 381.1 713.336 381.1ZM742.283 384.25C739.817 384.25 737.917 383.583 736.583 382.25C735.25 380.917 734.583 379.033 734.583 376.6V351.95H738.133V376.4C738.133 377.933 738.517 379.117 739.283 379.95C740.083 380.783 741.217 381.2 742.683 381.2C744.25 381.2 745.55 380.75 746.583 379.85L747.833 382.4C747.133 383.033 746.283 383.5 745.283 383.8C744.317 384.1 743.317 384.25 742.283 384.25ZM729.883 360.7V357.75H746.133V360.7H729.883ZM767.696 357.5C769.829 357.5 771.696 357.917 773.296 358.75C774.929 359.55 776.196 360.783 777.096 362.45C778.029 364.117 778.496 366.217 778.496 368.75V384H774.946V369.1C774.946 366.333 774.246 364.25 772.846 362.85C771.479 361.417 769.546 360.7 767.046 360.7C765.179 360.7 763.546 361.083 762.146 361.85C760.779 362.583 759.712 363.667 758.946 365.1C758.212 366.5 757.846 368.2 757.846 370.2V384H754.296V346.9H757.846V364.95L757.146 363.6C757.979 361.7 759.312 360.217 761.146 359.15C762.979 358.05 765.162 357.5 767.696 357.5ZM799.235 384.25C796.501 384.25 794.101 383.683 792.035 382.55C789.968 381.383 788.351 379.8 787.185 377.8C786.018 375.767 785.435 373.45 785.435 370.85C785.435 368.25 785.985 365.95 787.085 363.95C788.218 361.95 789.751 360.383 791.685 359.25C793.651 358.083 795.851 357.5 798.285 357.5C800.751 357.5 802.935 358.067 804.835 359.2C806.768 360.3 808.285 361.867 809.385 363.9C810.485 365.9 811.035 368.217 811.035 370.85C811.035 371.017 811.018 371.2 810.985 371.4C810.985 371.567 810.985 371.75 810.985 371.95H788.135V369.3H809.085L807.685 370.35C807.685 368.45 807.268 366.767 806.435 365.3C805.635 363.8 804.535 362.633 803.135 361.8C801.735 360.967 800.118 360.55 798.285 360.55C796.485 360.55 794.868 360.967 793.435 361.8C792.001 362.633 790.885 363.8 790.085 365.3C789.285 366.8 788.885 368.517 788.885 370.45V371C788.885 373 789.318 374.767 790.185 376.3C791.085 377.8 792.318 378.983 793.885 379.85C795.485 380.683 797.301 381.1 799.335 381.1C800.935 381.1 802.418 380.817 803.785 380.25C805.185 379.683 806.385 378.817 807.385 377.65L809.385 379.95C808.218 381.35 806.751 382.417 804.985 383.15C803.251 383.883 801.335 384.25 799.235 384.25ZM818.261 384V357.75H821.661V364.9L821.311 363.65C822.044 361.65 823.277 360.133 825.011 359.1C826.744 358.033 828.894 357.5 831.461 357.5V360.95C831.327 360.95 831.194 360.95 831.061 360.95C830.927 360.917 830.794 360.9 830.661 360.9C827.894 360.9 825.727 361.75 824.161 363.45C822.594 365.117 821.811 367.5 821.811 370.6V384H818.261ZM861.815 384.3C859.215 384.3 856.715 383.883 854.315 383.05C851.948 382.183 850.115 381.083 848.815 379.75L850.265 376.9C851.498 378.1 853.148 379.117 855.215 379.95C857.315 380.75 859.515 381.15 861.815 381.15C864.015 381.15 865.798 380.883 867.165 380.35C868.565 379.783 869.582 379.033 870.215 378.1C870.882 377.167 871.215 376.133 871.215 375C871.215 373.633 870.815 372.533 870.015 371.7C869.248 370.867 868.232 370.217 866.965 369.75C865.698 369.25 864.298 368.817 862.765 368.45C861.232 368.083 859.698 367.7 858.165 367.3C856.632 366.867 855.215 366.3 853.915 365.6C852.648 364.9 851.615 363.983 850.815 362.85C850.048 361.683 849.665 360.167 849.665 358.3C849.665 356.567 850.115 354.983 851.015 353.55C851.948 352.083 853.365 350.917 855.265 350.05C857.165 349.15 859.598 348.7 862.565 348.7C864.532 348.7 866.482 348.983 868.415 349.55C870.348 350.083 872.015 350.833 873.415 351.8L872.165 354.75C870.665 353.75 869.065 353.017 867.365 352.55C865.698 352.083 864.082 351.85 862.515 351.85C860.415 351.85 858.682 352.133 857.315 352.7C855.948 353.267 854.932 354.033 854.265 355C853.632 355.933 853.315 357 853.315 358.2C853.315 359.567 853.698 360.667 854.465 361.5C855.265 362.333 856.298 362.983 857.565 363.45C858.865 363.917 860.282 364.333 861.815 364.7C863.348 365.067 864.865 365.467 866.365 365.9C867.898 366.333 869.298 366.9 870.565 367.6C871.865 368.267 872.898 369.167 873.665 370.3C874.465 371.433 874.865 372.917 874.865 374.75C874.865 376.45 874.398 378.033 873.465 379.5C872.532 380.933 871.098 382.1 869.165 383C867.265 383.867 864.815 384.3 861.815 384.3ZM892.877 384.25C890.343 384.25 888.06 383.683 886.027 382.55C884.027 381.383 882.443 379.8 881.277 377.8C880.11 375.767 879.527 373.45 879.527 370.85C879.527 368.217 880.11 365.9 881.277 363.9C882.443 361.9 884.027 360.333 886.027 359.2C888.027 358.067 890.31 357.5 892.877 357.5C895.477 357.5 897.777 358.067 899.777 359.2C901.81 360.333 903.393 361.9 904.527 363.9C905.693 365.9 906.277 368.217 906.277 370.85C906.277 373.45 905.693 375.767 904.527 377.8C903.393 379.8 901.81 381.383 899.777 382.55C897.743 383.683 895.443 384.25 892.877 384.25ZM892.877 381.1C894.777 381.1 896.46 380.683 897.927 379.85C899.393 378.983 900.543 377.783 901.377 376.25C902.243 374.683 902.677 372.883 902.677 370.85C902.677 368.783 902.243 366.983 901.377 365.45C900.543 363.917 899.393 362.733 897.927 361.9C896.46 361.033 894.793 360.6 892.927 360.6C891.06 360.6 889.393 361.033 887.927 361.9C886.46 362.733 885.293 363.917 884.427 365.45C883.56 366.983 883.127 368.783 883.127 370.85C883.127 372.883 883.56 374.683 884.427 376.25C885.293 377.783 886.46 378.983 887.927 379.85C889.393 380.683 891.043 381.1 892.877 381.1ZM913.524 384V346.9H917.074V384H913.524ZM943.402 384V378.2L943.252 377.25V367.55C943.252 365.317 942.619 363.6 941.352 362.4C940.119 361.2 938.269 360.6 935.802 360.6C934.102 360.6 932.485 360.883 930.952 361.45C929.419 362.017 928.119 362.767 927.052 363.7L925.452 361.05C926.785 359.917 928.385 359.05 930.252 358.45C932.119 357.817 934.085 357.5 936.152 357.5C939.552 357.5 942.169 358.35 944.002 360.05C945.869 361.717 946.802 364.267 946.802 367.7V384H943.402ZM934.352 384.25C932.385 384.25 930.669 383.933 929.202 383.3C927.769 382.633 926.669 381.733 925.902 380.6C925.135 379.433 924.752 378.1 924.752 376.6C924.752 375.233 925.069 374 925.702 372.9C926.369 371.767 927.435 370.867 928.902 370.2C930.402 369.5 932.402 369.15 934.902 369.15H943.952V371.8H935.002C932.469 371.8 930.702 372.25 929.702 373.15C928.735 374.05 928.252 375.167 928.252 376.5C928.252 378 928.835 379.2 930.002 380.1C931.169 381 932.802 381.45 934.902 381.45C936.902 381.45 938.619 381 940.052 380.1C941.519 379.167 942.585 377.833 943.252 376.1L944.052 378.55C943.385 380.283 942.219 381.667 940.552 382.7C938.919 383.733 936.852 384.25 934.352 384.25ZM969.844 357.5C971.977 357.5 973.844 357.917 975.444 358.75C977.077 359.55 978.344 360.783 979.244 362.45C980.177 364.117 980.644 366.217 980.644 368.75V384H977.094V369.1C977.094 366.333 976.394 364.25 974.994 362.85C973.627 361.417 971.694 360.7 969.194 360.7C967.327 360.7 965.694 361.083 964.294 361.85C962.927 362.583 961.861 363.667 961.094 365.1C960.361 366.5 959.994 368.2 959.994 370.2V384H956.444V357.75H959.844V364.95L959.294 363.6C960.127 361.7 961.461 360.217 963.294 359.15C965.127 358.05 967.311 357.5 969.844 357.5ZM1006.68 384V378.2L1006.53 377.25V367.55C1006.53 365.317 1005.9 363.6 1004.63 362.4C1003.4 361.2 1001.55 360.6 999.083 360.6C997.383 360.6 995.767 360.883 994.233 361.45C992.7 362.017 991.4 362.767 990.333 363.7L988.733 361.05C990.067 359.917 991.667 359.05 993.533 358.45C995.4 357.817 997.367 357.5 999.433 357.5C1002.83 357.5 1005.45 358.35 1007.28 360.05C1009.15 361.717 1010.08 364.267 1010.08 367.7V384H1006.68ZM997.633 384.25C995.667 384.25 993.95 383.933 992.483 383.3C991.05 382.633 989.95 381.733 989.183 380.6C988.417 379.433 988.033 378.1 988.033 376.6C988.033 375.233 988.35 374 988.983 372.9C989.65 371.767 990.717 370.867 992.183 370.2C993.683 369.5 995.683 369.15 998.183 369.15H1007.23V371.8H998.283C995.75 371.8 993.983 372.25 992.983 373.15C992.017 374.05 991.533 375.167 991.533 376.5C991.533 378 992.117 379.2 993.283 380.1C994.45 381 996.083 381.45 998.183 381.45C1000.18 381.45 1001.9 381 1003.33 380.1C1004.8 379.167 1005.87 377.833 1006.53 376.1L1007.33 378.55C1006.67 380.283 1005.5 381.667 1003.83 382.7C1002.2 383.733 1000.13 384.25 997.633 384.25ZM1033.56 384V349H1047.81C1051.54 349 1054.81 349.75 1057.61 351.25C1060.44 352.717 1062.64 354.767 1064.21 357.4C1065.78 360.033 1066.56 363.067 1066.56 366.5C1066.56 369.933 1065.78 372.967 1064.21 375.6C1062.64 378.233 1060.44 380.3 1057.61 381.8C1054.81 383.267 1051.54 384 1047.81 384H1033.56ZM1037.26 380.8H1047.61C1050.71 380.8 1053.39 380.2 1055.66 379C1057.96 377.767 1059.74 376.083 1061.01 373.95C1062.28 371.783 1062.91 369.3 1062.91 366.5C1062.91 363.667 1062.28 361.183 1061.01 359.05C1059.74 356.917 1057.96 355.25 1055.66 354.05C1053.39 352.817 1050.71 352.2 1047.61 352.2H1037.26V380.8ZM1078.17 364.65H1096.67V367.8H1078.17V364.65ZM1078.57 380.8H1099.62V384H1074.87V349H1098.87V352.2H1078.57V380.8ZM1103.03 384L1117.38 364.6V367.45L1103.88 349H1108.13L1119.48 364.4L1117.83 364.45L1129.18 349H1133.18L1119.83 367.2V364.6L1134.13 384H1129.83L1117.73 367.55H1119.28L1107.28 384H1103.03ZM1163.73 384.25C1161.19 384.25 1158.91 383.683 1156.88 382.55C1154.88 381.383 1153.29 379.8 1152.13 377.8C1150.96 375.767 1150.38 373.45 1150.38 370.85C1150.38 368.217 1150.96 365.9 1152.13 363.9C1153.29 361.9 1154.88 360.333 1156.88 359.2C1158.88 358.067 1161.16 357.5 1163.73 357.5C1166.33 357.5 1168.63 358.067 1170.63 359.2C1172.66 360.333 1174.24 361.9 1175.38 363.9C1176.54 365.9 1177.13 368.217 1177.13 370.85C1177.13 373.45 1176.54 375.767 1175.38 377.8C1174.24 379.8 1172.66 381.383 1170.63 382.55C1168.59 383.683 1166.29 384.25 1163.73 384.25ZM1163.73 381.1C1165.63 381.1 1167.31 380.683 1168.78 379.85C1170.24 378.983 1171.39 377.783 1172.23 376.25C1173.09 374.683 1173.53 372.883 1173.53 370.85C1173.53 368.783 1173.09 366.983 1172.23 365.45C1171.39 363.917 1170.24 362.733 1168.78 361.9C1167.31 361.033 1165.64 360.6 1163.78 360.6C1161.91 360.6 1160.24 361.033 1158.78 361.9C1157.31 362.733 1156.14 363.917 1155.28 365.45C1154.41 366.983 1153.98 368.783 1153.98 370.85C1153.98 372.883 1154.41 374.683 1155.28 376.25C1156.14 377.783 1157.31 378.983 1158.78 379.85C1160.24 380.683 1161.89 381.1 1163.73 381.1ZM1184.97 384V354.45C1184.97 352.117 1185.66 350.233 1187.02 348.8C1188.39 347.367 1190.36 346.65 1192.92 346.65C1193.92 346.65 1194.89 346.783 1195.82 347.05C1196.76 347.317 1197.54 347.733 1198.17 348.3L1196.97 350.95C1196.47 350.517 1195.89 350.2 1195.22 350C1194.56 349.767 1193.84 349.65 1193.07 349.65C1191.57 349.65 1190.42 350.067 1189.62 350.9C1188.82 351.733 1188.42 352.967 1188.42 354.6V358.6L1188.52 360.25V384H1184.97ZM1180.27 360.7V357.75H1196.52V360.7H1180.27ZM1214.6 393.95C1213.37 393.95 1212.19 393.75 1211.05 393.35C1209.95 392.95 1209 392.35 1208.2 391.55L1209.85 388.9C1210.52 389.533 1211.24 390.017 1212 390.35C1212.8 390.717 1213.69 390.9 1214.65 390.9C1215.82 390.9 1216.82 390.567 1217.65 389.9C1218.52 389.267 1219.34 388.133 1220.1 386.5L1221.8 382.65L1222.2 382.1L1233 357.75H1236.5L1223.35 387.15C1222.62 388.85 1221.8 390.2 1220.9 391.2C1220.04 392.2 1219.09 392.9 1218.05 393.3C1217.02 393.733 1215.87 393.95 1214.6 393.95ZM1221.6 384.75L1209.5 357.75H1213.2L1223.9 381.85L1221.6 384.75ZM1251.47 384.25C1248.94 384.25 1246.65 383.683 1244.62 382.55C1242.62 381.383 1241.04 379.8 1239.87 377.8C1238.7 375.767 1238.12 373.45 1238.12 370.85C1238.12 368.217 1238.7 365.9 1239.87 363.9C1241.04 361.9 1242.62 360.333 1244.62 359.2C1246.62 358.067 1248.9 357.5 1251.47 357.5C1254.07 357.5 1256.37 358.067 1258.37 359.2C1260.4 360.333 1261.99 361.9 1263.12 363.9C1264.29 365.9 1264.87 368.217 1264.87 370.85C1264.87 373.45 1264.29 375.767 1263.12 377.8C1261.99 379.8 1260.4 381.383 1258.37 382.55C1256.34 383.683 1254.04 384.25 1251.47 384.25ZM1251.47 381.1C1253.37 381.1 1255.05 380.683 1256.52 379.85C1257.99 378.983 1259.14 377.783 1259.97 376.25C1260.84 374.683 1261.27 372.883 1261.27 370.85C1261.27 368.783 1260.84 366.983 1259.97 365.45C1259.14 363.917 1257.99 362.733 1256.52 361.9C1255.05 361.033 1253.39 360.6 1251.52 360.6C1249.65 360.6 1247.99 361.033 1246.52 361.9C1245.05 362.733 1243.89 363.917 1243.02 365.45C1242.15 366.983 1241.72 368.783 1241.72 370.85C1241.72 372.883 1242.15 374.683 1243.02 376.25C1243.89 377.783 1245.05 378.983 1246.52 379.85C1247.99 380.683 1249.64 381.1 1251.47 381.1ZM1282.97 384.25C1280.73 384.25 1278.78 383.833 1277.12 383C1275.45 382.167 1274.15 380.917 1273.22 379.25C1272.32 377.583 1271.87 375.5 1271.87 373V357.75H1275.42V372.6C1275.42 375.4 1276.1 377.517 1277.47 378.95C1278.87 380.35 1280.82 381.05 1283.32 381.05C1285.15 381.05 1286.73 380.683 1288.07 379.95C1289.43 379.183 1290.47 378.083 1291.17 376.65C1291.9 375.217 1292.27 373.5 1292.27 371.5V357.75H1295.82V384H1292.42V376.8L1292.97 378.1C1292.13 380.033 1290.83 381.55 1289.07 382.65C1287.33 383.717 1285.3 384.25 1282.97 384.25ZM1305.71 384V357.75H1309.11V364.9L1308.76 363.65C1309.5 361.65 1310.73 360.133 1312.46 359.1C1314.2 358.033 1316.35 357.5 1318.91 357.5V360.95C1318.78 360.95 1318.65 360.95 1318.51 360.95C1318.38 360.917 1318.25 360.9 1318.11 360.9C1315.35 360.9 1313.18 361.75 1311.61 363.45C1310.05 365.117 1309.26 367.5 1309.26 370.6V384H1305.71ZM1349.77 384.25C1347.17 384.25 1344.83 383.683 1342.77 382.55C1340.73 381.383 1339.13 379.8 1337.97 377.8C1336.8 375.767 1336.22 373.45 1336.22 370.85C1336.22 368.217 1336.8 365.9 1337.97 363.9C1339.13 361.9 1340.73 360.333 1342.77 359.2C1344.83 358.067 1347.17 357.5 1349.77 357.5C1352 357.5 1354.02 357.933 1355.82 358.8C1357.62 359.667 1359.03 360.967 1360.07 362.7L1357.42 364.5C1356.52 363.167 1355.4 362.183 1354.07 361.55C1352.73 360.917 1351.28 360.6 1349.72 360.6C1347.85 360.6 1346.17 361.033 1344.67 361.9C1343.17 362.733 1341.98 363.917 1341.12 365.45C1340.25 366.983 1339.82 368.783 1339.82 370.85C1339.82 372.917 1340.25 374.717 1341.12 376.25C1341.98 377.783 1343.17 378.983 1344.67 379.85C1346.17 380.683 1347.85 381.1 1349.72 381.1C1351.28 381.1 1352.73 380.783 1354.07 380.15C1355.4 379.517 1356.52 378.55 1357.42 377.25L1360.07 379.05C1359.03 380.75 1357.62 382.05 1355.82 382.95C1354.02 383.817 1352 384.25 1349.77 384.25ZM1380.05 357.5C1382.18 357.5 1384.05 357.917 1385.65 358.75C1387.28 359.55 1388.55 360.783 1389.45 362.45C1390.38 364.117 1390.85 366.217 1390.85 368.75V384H1387.3V369.1C1387.3 366.333 1386.6 364.25 1385.2 362.85C1383.83 361.417 1381.9 360.7 1379.4 360.7C1377.53 360.7 1375.9 361.083 1374.5 361.85C1373.13 362.583 1372.07 363.667 1371.3 365.1C1370.57 366.5 1370.2 368.2 1370.2 370.2V384H1366.65V346.9H1370.2V364.95L1369.5 363.6C1370.33 361.7 1371.67 360.217 1373.5 359.15C1375.33 358.05 1377.52 357.5 1380.05 357.5ZM1411.14 384.25C1408.6 384.25 1406.32 383.683 1404.29 382.55C1402.29 381.383 1400.7 379.8 1399.54 377.8C1398.37 375.767 1397.79 373.45 1397.79 370.85C1397.79 368.217 1398.37 365.9 1399.54 363.9C1400.7 361.9 1402.29 360.333 1404.29 359.2C1406.29 358.067 1408.57 357.5 1411.14 357.5C1413.74 357.5 1416.04 358.067 1418.04 359.2C1420.07 360.333 1421.65 361.9 1422.79 363.9C1423.95 365.9 1424.54 368.217 1424.54 370.85C1424.54 373.45 1423.95 375.767 1422.79 377.8C1421.65 379.8 1420.07 381.383 1418.04 382.55C1416 383.683 1413.7 384.25 1411.14 384.25ZM1411.14 381.1C1413.04 381.1 1414.72 380.683 1416.19 379.85C1417.65 378.983 1418.8 377.783 1419.64 376.25C1420.5 374.683 1420.94 372.883 1420.94 370.85C1420.94 368.783 1420.5 366.983 1419.64 365.45C1418.8 363.917 1417.65 362.733 1416.19 361.9C1414.72 361.033 1413.05 360.6 1411.19 360.6C1409.32 360.6 1407.65 361.033 1406.19 361.9C1404.72 362.733 1403.55 363.917 1402.69 365.45C1401.82 366.983 1401.39 368.783 1401.39 370.85C1401.39 372.883 1401.82 374.683 1402.69 376.25C1403.55 377.783 1404.72 378.983 1406.19 379.85C1407.65 380.683 1409.3 381.1 1411.14 381.1ZM1431.79 384V357.75H1435.34V384H1431.79ZM1433.59 351.95C1432.85 351.95 1432.24 351.7 1431.74 351.2C1431.24 350.7 1430.99 350.1 1430.99 349.4C1430.99 348.7 1431.24 348.117 1431.74 347.65C1432.24 347.15 1432.85 346.9 1433.59 346.9C1434.32 346.9 1434.94 347.133 1435.44 347.6C1435.94 348.067 1436.19 348.65 1436.19 349.35C1436.19 350.083 1435.94 350.7 1435.44 351.2C1434.97 351.7 1434.35 351.95 1433.59 351.95ZM1456.11 384.25C1453.51 384.25 1451.18 383.683 1449.11 382.55C1447.08 381.383 1445.48 379.8 1444.31 377.8C1443.15 375.767 1442.56 373.45 1442.56 370.85C1442.56 368.217 1443.15 365.9 1444.31 363.9C1445.48 361.9 1447.08 360.333 1449.11 359.2C1451.18 358.067 1453.51 357.5 1456.11 357.5C1458.35 357.5 1460.36 357.933 1462.16 358.8C1463.96 359.667 1465.38 360.967 1466.41 362.7L1463.76 364.5C1462.86 363.167 1461.75 362.183 1460.41 361.55C1459.08 360.917 1457.63 360.6 1456.06 360.6C1454.2 360.6 1452.51 361.033 1451.01 361.9C1449.51 362.733 1448.33 363.917 1447.46 365.45C1446.6 366.983 1446.16 368.783 1446.16 370.85C1446.16 372.917 1446.6 374.717 1447.46 376.25C1448.33 377.783 1449.51 378.983 1451.01 379.85C1452.51 380.683 1454.2 381.1 1456.06 381.1C1457.63 381.1 1459.08 380.783 1460.41 380.15C1461.75 379.517 1462.86 378.55 1463.76 377.25L1466.41 379.05C1465.38 380.75 1463.96 382.05 1462.16 382.95C1460.36 383.817 1458.35 384.25 1456.11 384.25ZM1484.1 384.25C1481.36 384.25 1478.96 383.683 1476.9 382.55C1474.83 381.383 1473.21 379.8 1472.05 377.8C1470.88 375.767 1470.3 373.45 1470.3 370.85C1470.3 368.25 1470.85 365.95 1471.95 363.95C1473.08 361.95 1474.61 360.383 1476.55 359.25C1478.51 358.083 1480.71 357.5 1483.15 357.5C1485.61 357.5 1487.8 358.067 1489.7 359.2C1491.63 360.3 1493.15 361.867 1494.25 363.9C1495.35 365.9 1495.9 368.217 1495.9 370.85C1495.9 371.017 1495.88 371.2 1495.85 371.4C1495.85 371.567 1495.85 371.75 1495.85 371.95H1473V369.3H1493.95L1492.55 370.35C1492.55 368.45 1492.13 366.767 1491.3 365.3C1490.5 363.8 1489.4 362.633 1488 361.8C1486.6 360.967 1484.98 360.55 1483.15 360.55C1481.35 360.55 1479.73 360.967 1478.3 361.8C1476.86 362.633 1475.75 363.8 1474.95 365.3C1474.15 366.8 1473.75 368.517 1473.75 370.45V371C1473.75 373 1474.18 374.767 1475.05 376.3C1475.95 377.8 1477.18 378.983 1478.75 379.85C1480.35 380.683 1482.16 381.1 1484.2 381.1C1485.8 381.1 1487.28 380.817 1488.65 380.25C1490.05 379.683 1491.25 378.817 1492.25 377.65L1494.25 379.95C1493.08 381.35 1491.61 382.417 1489.85 383.15C1488.11 383.883 1486.2 384.25 1484.1 384.25ZM1532.66 384V378.2L1532.51 377.25V367.55C1532.51 365.317 1531.88 363.6 1530.61 362.4C1529.38 361.2 1527.53 360.6 1525.06 360.6C1523.36 360.6 1521.74 360.883 1520.21 361.45C1518.68 362.017 1517.38 362.767 1516.31 363.7L1514.71 361.05C1516.04 359.917 1517.64 359.05 1519.51 358.45C1521.38 357.817 1523.34 357.5 1525.41 357.5C1528.81 357.5 1531.43 358.35 1533.26 360.05C1535.13 361.717 1536.06 364.267 1536.06 367.7V384H1532.66ZM1523.61 384.25C1521.64 384.25 1519.93 383.933 1518.46 383.3C1517.03 382.633 1515.93 381.733 1515.16 380.6C1514.39 379.433 1514.01 378.1 1514.01 376.6C1514.01 375.233 1514.33 374 1514.96 372.9C1515.63 371.767 1516.69 370.867 1518.16 370.2C1519.66 369.5 1521.66 369.15 1524.16 369.15H1533.21V371.8H1524.26C1521.73 371.8 1519.96 372.25 1518.96 373.15C1517.99 374.05 1517.51 375.167 1517.51 376.5C1517.51 378 1518.09 379.2 1519.26 380.1C1520.43 381 1522.06 381.45 1524.16 381.45C1526.16 381.45 1527.88 381 1529.31 380.1C1530.78 379.167 1531.84 377.833 1532.51 376.1L1533.31 378.55C1532.64 380.283 1531.48 381.667 1529.81 382.7C1528.18 383.733 1526.11 384.25 1523.61 384.25ZM1559.1 357.5C1561.24 357.5 1563.1 357.917 1564.7 358.75C1566.34 359.55 1567.6 360.783 1568.5 362.45C1569.44 364.117 1569.9 366.217 1569.9 368.75V384H1566.35V369.1C1566.35 366.333 1565.65 364.25 1564.25 362.85C1562.89 361.417 1560.95 360.7 1558.45 360.7C1556.59 360.7 1554.95 361.083 1553.55 361.85C1552.19 362.583 1551.12 363.667 1550.35 365.1C1549.62 366.5 1549.25 368.2 1549.25 370.2V384H1545.7V357.75H1549.1V364.95L1548.55 363.6C1549.39 361.7 1550.72 360.217 1552.55 359.15C1554.39 358.05 1556.57 357.5 1559.1 357.5ZM1589.94 384.25C1587.44 384.25 1585.19 383.683 1583.19 382.55C1581.22 381.417 1579.67 379.85 1578.54 377.85C1577.41 375.817 1576.84 373.483 1576.84 370.85C1576.84 368.183 1577.41 365.85 1578.54 363.85C1579.67 361.85 1581.22 360.3 1583.19 359.2C1585.19 358.067 1587.44 357.5 1589.94 357.5C1592.24 357.5 1594.29 358.017 1596.09 359.05C1597.92 360.083 1599.37 361.6 1600.44 363.6C1601.54 365.567 1602.09 367.983 1602.09 370.85C1602.09 373.683 1601.56 376.1 1600.49 378.1C1599.42 380.1 1597.97 381.633 1596.14 382.7C1594.34 383.733 1592.27 384.25 1589.94 384.25ZM1590.19 381.1C1592.06 381.1 1593.72 380.683 1595.19 379.85C1596.69 378.983 1597.86 377.783 1598.69 376.25C1599.56 374.683 1599.99 372.883 1599.99 370.85C1599.99 368.783 1599.56 366.983 1598.69 365.45C1597.86 363.917 1596.69 362.733 1595.19 361.9C1593.72 361.033 1592.06 360.6 1590.19 360.6C1588.36 360.6 1586.71 361.033 1585.24 361.9C1583.77 362.733 1582.61 363.917 1581.74 365.45C1580.87 366.983 1580.44 368.783 1580.44 370.85C1580.44 372.883 1580.87 374.683 1581.74 376.25C1582.61 377.783 1583.77 378.983 1585.24 379.85C1586.71 380.683 1588.36 381.1 1590.19 381.1ZM1600.09 384V376.1L1600.44 370.8L1599.94 365.5V346.9H1603.49V384H1600.09ZM1637.36 384.25C1634.76 384.25 1632.43 383.683 1630.36 382.55C1628.33 381.383 1626.73 379.8 1625.56 377.8C1624.4 375.767 1623.81 373.45 1623.81 370.85C1623.81 368.217 1624.4 365.9 1625.56 363.9C1626.73 361.9 1628.33 360.333 1630.36 359.2C1632.43 358.067 1634.76 357.5 1637.36 357.5C1639.6 357.5 1641.61 357.933 1643.41 358.8C1645.21 359.667 1646.63 360.967 1647.66 362.7L1645.01 364.5C1644.11 363.167 1643 362.183 1641.66 361.55C1640.33 360.917 1638.88 360.6 1637.31 360.6C1635.45 360.6 1633.76 361.033 1632.26 361.9C1630.76 362.733 1629.58 363.917 1628.71 365.45C1627.85 366.983 1627.41 368.783 1627.41 370.85C1627.41 372.917 1627.85 374.717 1628.71 376.25C1629.58 377.783 1630.76 378.983 1632.26 379.85C1633.76 380.683 1635.45 381.1 1637.31 381.1C1638.88 381.1 1640.33 380.783 1641.66 380.15C1643 379.517 1644.11 378.55 1645.01 377.25L1647.66 379.05C1646.63 380.75 1645.21 382.05 1643.41 382.95C1641.61 383.817 1639.6 384.25 1637.36 384.25ZM1664.9 384.25C1662.36 384.25 1660.08 383.683 1658.05 382.55C1656.05 381.383 1654.46 379.8 1653.3 377.8C1652.13 375.767 1651.55 373.45 1651.55 370.85C1651.55 368.217 1652.13 365.9 1653.3 363.9C1654.46 361.9 1656.05 360.333 1658.05 359.2C1660.05 358.067 1662.33 357.5 1664.9 357.5C1667.5 357.5 1669.8 358.067 1671.8 359.2C1673.83 360.333 1675.41 361.9 1676.55 363.9C1677.71 365.9 1678.3 368.217 1678.3 370.85C1678.3 373.45 1677.71 375.767 1676.55 377.8C1675.41 379.8 1673.83 381.383 1671.8 382.55C1669.76 383.683 1667.46 384.25 1664.9 384.25ZM1664.9 381.1C1666.8 381.1 1668.48 380.683 1669.95 379.85C1671.41 378.983 1672.56 377.783 1673.4 376.25C1674.26 374.683 1674.7 372.883 1674.7 370.85C1674.7 368.783 1674.26 366.983 1673.4 365.45C1672.56 363.917 1671.41 362.733 1669.95 361.9C1668.48 361.033 1666.81 360.6 1664.95 360.6C1663.08 360.6 1661.41 361.033 1659.95 361.9C1658.48 362.733 1657.31 363.917 1656.45 365.45C1655.58 366.983 1655.15 368.783 1655.15 370.85C1655.15 372.883 1655.58 374.683 1656.45 376.25C1657.31 377.783 1658.48 378.983 1659.95 379.85C1661.41 380.683 1663.06 381.1 1664.9 381.1ZM1698.95 357.5C1701.08 357.5 1702.95 357.917 1704.55 358.75C1706.18 359.55 1707.45 360.783 1708.35 362.45C1709.28 364.117 1709.75 366.217 1709.75 368.75V384H1706.2V369.1C1706.2 366.333 1705.5 364.25 1704.1 362.85C1702.73 361.417 1700.8 360.7 1698.3 360.7C1696.43 360.7 1694.8 361.083 1693.4 361.85C1692.03 362.583 1690.96 363.667 1690.2 365.1C1689.46 366.5 1689.1 368.2 1689.1 370.2V384H1685.55V357.75H1688.95V364.95L1688.4 363.6C1689.23 361.7 1690.56 360.217 1692.4 359.15C1694.23 358.05 1696.41 357.5 1698.95 357.5ZM1732.73 357.5C1734.87 357.5 1736.73 357.917 1738.33 358.75C1739.97 359.55 1741.23 360.783 1742.13 362.45C1743.07 364.117 1743.53 366.217 1743.53 368.75V384H1739.98V369.1C1739.98 366.333 1739.28 364.25 1737.88 362.85C1736.52 361.417 1734.58 360.7 1732.08 360.7C1730.22 360.7 1728.58 361.083 1727.18 361.85C1725.82 362.583 1724.75 363.667 1723.98 365.1C1723.25 366.5 1722.88 368.2 1722.88 370.2V384H1719.33V357.75H1722.73V364.95L1722.18 363.6C1723.02 361.7 1724.35 360.217 1726.18 359.15C1728.02 358.05 1730.2 357.5 1732.73 357.5ZM1764.27 384.25C1761.54 384.25 1759.14 383.683 1757.07 382.55C1755.01 381.383 1753.39 379.8 1752.22 377.8C1751.06 375.767 1750.47 373.45 1750.47 370.85C1750.47 368.25 1751.02 365.95 1752.12 363.95C1753.26 361.95 1754.79 360.383 1756.72 359.25C1758.69 358.083 1760.89 357.5 1763.32 357.5C1765.79 357.5 1767.97 358.067 1769.87 359.2C1771.81 360.3 1773.32 361.867 1774.42 363.9C1775.52 365.9 1776.07 368.217 1776.07 370.85C1776.07 371.017 1776.06 371.2 1776.02 371.4C1776.02 371.567 1776.02 371.75 1776.02 371.95H1753.17V369.3H1774.12L1772.72 370.35C1772.72 368.45 1772.31 366.767 1771.47 365.3C1770.67 363.8 1769.57 362.633 1768.17 361.8C1766.77 360.967 1765.16 360.55 1763.32 360.55C1761.52 360.55 1759.91 360.967 1758.47 361.8C1757.04 362.633 1755.92 363.8 1755.12 365.3C1754.32 366.8 1753.92 368.517 1753.92 370.45V371C1753.92 373 1754.36 374.767 1755.22 376.3C1756.12 377.8 1757.36 378.983 1758.92 379.85C1760.52 380.683 1762.34 381.1 1764.37 381.1C1765.97 381.1 1767.46 380.817 1768.82 380.25C1770.22 379.683 1771.42 378.817 1772.42 377.65L1774.42 379.95C1773.26 381.35 1771.79 382.417 1770.02 383.15C1768.29 383.883 1766.37 384.25 1764.27 384.25ZM1794.2 384.25C1791.6 384.25 1789.27 383.683 1787.2 382.55C1785.17 381.383 1783.57 379.8 1782.4 377.8C1781.23 375.767 1780.65 373.45 1780.65 370.85C1780.65 368.217 1781.23 365.9 1782.4 363.9C1783.57 361.9 1785.17 360.333 1787.2 359.2C1789.27 358.067 1791.6 357.5 1794.2 357.5C1796.43 357.5 1798.45 357.933 1800.25 358.8C1802.05 359.667 1803.47 360.967 1804.5 362.7L1801.85 364.5C1800.95 363.167 1799.83 362.183 1798.5 361.55C1797.17 360.917 1795.72 360.6 1794.15 360.6C1792.28 360.6 1790.6 361.033 1789.1 361.9C1787.6 362.733 1786.42 363.917 1785.55 365.45C1784.68 366.983 1784.25 368.783 1784.25 370.85C1784.25 372.917 1784.68 374.717 1785.55 376.25C1786.42 377.783 1787.6 378.983 1789.1 379.85C1790.6 380.683 1792.28 381.1 1794.15 381.1C1795.72 381.1 1797.17 380.783 1798.5 380.15C1799.83 379.517 1800.95 378.55 1801.85 377.25L1804.5 379.05C1803.47 380.75 1802.05 382.05 1800.25 382.95C1798.45 383.817 1796.43 384.25 1794.2 384.25ZM1820.07 384.25C1817.6 384.25 1815.7 383.583 1814.37 382.25C1813.03 380.917 1812.37 379.033 1812.37 376.6V351.95H1815.92V376.4C1815.92 377.933 1816.3 379.117 1817.07 379.95C1817.87 380.783 1819 381.2 1820.47 381.2C1822.03 381.2 1823.33 380.75 1824.37 379.85L1825.62 382.4C1824.92 383.033 1824.07 383.5 1823.07 383.8C1822.1 384.1 1821.1 384.25 1820.07 384.25ZM1807.67 360.7V357.75H1823.92V360.7H1807.67ZM1845.36 393.95C1844.13 393.95 1842.95 393.75 1841.81 393.35C1840.71 392.95 1839.76 392.35 1838.96 391.55L1840.61 388.9C1841.28 389.533 1842 390.017 1842.76 390.35C1843.56 390.717 1844.45 390.9 1845.41 390.9C1846.58 390.9 1847.58 390.567 1848.41 389.9C1849.28 389.267 1850.1 388.133 1850.86 386.5L1852.56 382.65L1852.96 382.1L1863.76 357.75H1867.26L1854.11 387.15C1853.38 388.85 1852.56 390.2 1851.66 391.2C1850.8 392.2 1849.85 392.9 1848.81 393.3C1847.78 393.733 1846.63 393.95 1845.36 393.95ZM1852.36 384.75L1840.26 357.75H1843.96L1854.66 381.85L1852.36 384.75ZM1882.23 384.25C1879.7 384.25 1877.42 383.683 1875.38 382.55C1873.38 381.383 1871.8 379.8 1870.63 377.8C1869.47 375.767 1868.88 373.45 1868.88 370.85C1868.88 368.217 1869.47 365.9 1870.63 363.9C1871.8 361.9 1873.38 360.333 1875.38 359.2C1877.38 358.067 1879.67 357.5 1882.23 357.5C1884.83 357.5 1887.13 358.067 1889.13 359.2C1891.17 360.333 1892.75 361.9 1893.88 363.9C1895.05 365.9 1895.63 368.217 1895.63 370.85C1895.63 373.45 1895.05 375.767 1893.88 377.8C1892.75 379.8 1891.17 381.383 1889.13 382.55C1887.1 383.683 1884.8 384.25 1882.23 384.25ZM1882.23 381.1C1884.13 381.1 1885.82 380.683 1887.28 379.85C1888.75 378.983 1889.9 377.783 1890.73 376.25C1891.6 374.683 1892.03 372.883 1892.03 370.85C1892.03 368.783 1891.6 366.983 1890.73 365.45C1889.9 363.917 1888.75 362.733 1887.28 361.9C1885.82 361.033 1884.15 360.6 1882.28 360.6C1880.42 360.6 1878.75 361.033 1877.28 361.9C1875.82 362.733 1874.65 363.917 1873.78 365.45C1872.92 366.983 1872.48 368.783 1872.48 370.85C1872.48 372.883 1872.92 374.683 1873.78 376.25C1874.65 377.783 1875.82 378.983 1877.28 379.85C1878.75 380.683 1880.4 381.1 1882.23 381.1ZM1913.73 384.25C1911.5 384.25 1909.55 383.833 1907.88 383C1906.21 382.167 1904.91 380.917 1903.98 379.25C1903.08 377.583 1902.63 375.5 1902.63 373V357.75H1906.18V372.6C1906.18 375.4 1906.86 377.517 1908.23 378.95C1909.63 380.35 1911.58 381.05 1914.08 381.05C1915.91 381.05 1917.5 380.683 1918.83 379.95C1920.2 379.183 1921.23 378.083 1921.93 376.65C1922.66 375.217 1923.03 373.5 1923.03 371.5V357.75H1926.58V384H1923.18V376.8L1923.73 378.1C1922.9 380.033 1921.6 381.55 1919.83 382.65C1918.1 383.717 1916.06 384.25 1913.73 384.25ZM1936.47 384V357.75H1939.87V364.9L1939.52 363.65C1940.26 361.65 1941.49 360.133 1943.22 359.1C1944.96 358.033 1947.11 357.5 1949.67 357.5V360.95C1949.54 360.95 1949.41 360.95 1949.27 360.95C1949.14 360.917 1949.01 360.9 1948.87 360.9C1946.11 360.9 1943.94 361.75 1942.37 363.45C1940.81 365.117 1940.02 367.5 1940.02 370.6V384H1936.47ZM1974.98 384L1965.08 357.75H1968.48L1977.48 382.1H1975.93L1985.18 357.75H1988.23L1997.38 382.1H1995.83L2004.98 357.75H2008.23L1998.28 384H1994.93L1986.13 361.1H1987.18L1978.33 384H1974.98ZM2029.24 384V378.2L2029.09 377.25V367.55C2029.09 365.317 2028.46 363.6 2027.19 362.4C2025.96 361.2 2024.11 360.6 2021.64 360.6C2019.94 360.6 2018.33 360.883 2016.79 361.45C2015.26 362.017 2013.96 362.767 2012.89 363.7L2011.29 361.05C2012.63 359.917 2014.23 359.05 2016.09 358.45C2017.96 357.817 2019.93 357.5 2021.99 357.5C2025.39 357.5 2028.01 358.35 2029.84 360.05C2031.71 361.717 2032.64 364.267 2032.64 367.7V384H2029.24ZM2020.19 384.25C2018.23 384.25 2016.51 383.933 2015.04 383.3C2013.61 382.633 2012.51 381.733 2011.74 380.6C2010.98 379.433 2010.59 378.1 2010.59 376.6C2010.59 375.233 2010.91 374 2011.54 372.9C2012.21 371.767 2013.28 370.867 2014.74 370.2C2016.24 369.5 2018.24 369.15 2020.74 369.15H2029.79V371.8H2020.84C2018.31 371.8 2016.54 372.25 2015.54 373.15C2014.58 374.05 2014.09 375.167 2014.09 376.5C2014.09 378 2014.68 379.2 2015.84 380.1C2017.01 381 2018.64 381.45 2020.74 381.45C2022.74 381.45 2024.46 381 2025.89 380.1C2027.36 379.167 2028.43 377.833 2029.09 376.1L2029.89 378.55C2029.23 380.283 2028.06 381.667 2026.39 382.7C2024.76 383.733 2022.69 384.25 2020.19 384.25ZM2042.28 384V346.9H2045.83V384H2042.28ZM2055.71 384V346.9H2059.26V384H2055.71ZM2080.29 384.25C2077.56 384.25 2075.16 383.683 2073.09 382.55C2071.02 381.383 2069.41 379.8 2068.24 377.8C2067.07 375.767 2066.49 373.45 2066.49 370.85C2066.49 368.25 2067.04 365.95 2068.14 363.95C2069.27 361.95 2070.81 360.383 2072.74 359.25C2074.71 358.083 2076.91 357.5 2079.34 357.5C2081.81 357.5 2083.99 358.067 2085.89 359.2C2087.82 360.3 2089.34 361.867 2090.44 363.9C2091.54 365.9 2092.09 368.217 2092.09 370.85C2092.09 371.017 2092.07 371.2 2092.04 371.4C2092.04 371.567 2092.04 371.75 2092.04 371.95H2069.19V369.3H2090.14L2088.74 370.35C2088.74 368.45 2088.32 366.767 2087.49 365.3C2086.69 363.8 2085.59 362.633 2084.19 361.8C2082.79 360.967 2081.17 360.55 2079.34 360.55C2077.54 360.55 2075.92 360.967 2074.49 361.8C2073.06 362.633 2071.94 363.8 2071.14 365.3C2070.34 366.8 2069.94 368.517 2069.94 370.45V371C2069.94 373 2070.37 374.767 2071.24 376.3C2072.14 377.8 2073.37 378.983 2074.94 379.85C2076.54 380.683 2078.36 381.1 2080.39 381.1C2081.99 381.1 2083.47 380.817 2084.84 380.25C2086.24 379.683 2087.44 378.817 2088.44 377.65L2090.44 379.95C2089.27 381.35 2087.81 382.417 2086.04 383.15C2084.31 383.883 2082.39 384.25 2080.29 384.25ZM2107.62 384.25C2105.15 384.25 2103.25 383.583 2101.92 382.25C2100.58 380.917 2099.92 379.033 2099.92 376.6V351.95H2103.47V376.4C2103.47 377.933 2103.85 379.117 2104.62 379.95C2105.42 380.783 2106.55 381.2 2108.02 381.2C2109.58 381.2 2110.88 380.75 2111.92 379.85L2113.17 382.4C2112.47 383.033 2111.62 383.5 2110.62 383.8C2109.65 384.1 2108.65 384.25 2107.62 384.25ZM2095.22 360.7V357.75H2111.47V360.7H2095.22ZM2117.97 391.3L2120.17 382.05L2120.57 384.2C2119.8 384.2 2119.15 383.95 2118.62 383.45C2118.12 382.95 2117.87 382.3 2117.87 381.5C2117.87 380.7 2118.12 380.05 2118.62 379.55C2119.15 379.05 2119.78 378.8 2120.52 378.8C2121.28 378.8 2121.9 379.067 2122.37 379.6C2122.87 380.133 2123.12 380.767 2123.12 381.5C2123.12 381.767 2123.1 382.033 2123.07 382.3C2123.03 382.567 2122.97 382.867 2122.87 383.2C2122.77 383.533 2122.63 383.933 2122.47 384.4L2120.37 391.3H2117.97ZM163.35 418.5C165.483 418.5 167.35 418.917 168.95 419.75C170.583 420.55 171.85 421.783 172.75 423.45C173.683 425.117 174.15 427.217 174.15 429.75V445H170.6V430.1C170.6 427.333 169.9 425.25 168.5 423.85C167.133 422.417 165.2 421.7 162.7 421.7C160.833 421.7 159.2 422.083 157.8 422.85C156.433 423.583 155.367 424.667 154.6 426.1C153.867 427.5 153.5 429.2 153.5 431.2V445H149.95V407.9H153.5V425.95L152.8 424.6C153.633 422.7 154.967 421.217 156.8 420.15C158.633 419.05 160.817 418.5 163.35 418.5ZM194.889 445.25C192.156 445.25 189.756 444.683 187.689 443.55C185.622 442.383 184.006 440.8 182.839 438.8C181.672 436.767 181.089 434.45 181.089 431.85C181.089 429.25 181.639 426.95 182.739 424.95C183.872 422.95 185.406 421.383 187.339 420.25C189.306 419.083 191.506 418.5 193.939 418.5C196.406 418.5 198.589 419.067 200.489 420.2C202.422 421.3 203.939 422.867 205.039 424.9C206.139 426.9 206.689 429.217 206.689 431.85C206.689 432.017 206.672 432.2 206.639 432.4C206.639 432.567 206.639 432.75 206.639 432.95H183.789V430.3H204.739L203.339 431.35C203.339 429.45 202.922 427.767 202.089 426.3C201.289 424.8 200.189 423.633 198.789 422.8C197.389 421.967 195.772 421.55 193.939 421.55C192.139 421.55 190.522 421.967 189.089 422.8C187.656 423.633 186.539 424.8 185.739 426.3C184.939 427.8 184.539 429.517 184.539 431.45V432C184.539 434 184.972 435.767 185.839 437.3C186.739 438.8 187.972 439.983 189.539 440.85C191.139 441.683 192.956 442.1 194.989 442.1C196.589 442.1 198.072 441.817 199.439 441.25C200.839 440.683 202.039 439.817 203.039 438.65L205.039 440.95C203.872 442.35 202.406 443.417 200.639 444.15C198.906 444.883 196.989 445.25 194.889 445.25ZM213.915 445V418.75H217.315V425.9L216.965 424.65C217.698 422.65 218.932 421.133 220.665 420.1C222.398 419.033 224.548 418.5 227.115 418.5V421.95C226.982 421.95 226.848 421.95 226.715 421.95C226.582 421.917 226.448 421.9 226.315 421.9C223.548 421.9 221.382 422.75 219.815 424.45C218.248 426.117 217.465 428.5 217.465 431.6V445H213.915ZM244.498 445.25C241.765 445.25 239.365 444.683 237.298 443.55C235.232 442.383 233.615 440.8 232.448 438.8C231.282 436.767 230.698 434.45 230.698 431.85C230.698 429.25 231.248 426.95 232.348 424.95C233.482 422.95 235.015 421.383 236.948 420.25C238.915 419.083 241.115 418.5 243.548 418.5C246.015 418.5 248.198 419.067 250.098 420.2C252.032 421.3 253.548 422.867 254.648 424.9C255.748 426.9 256.298 429.217 256.298 431.85C256.298 432.017 256.282 432.2 256.248 432.4C256.248 432.567 256.248 432.75 256.248 432.95H233.398V430.3H254.348L252.948 431.35C252.948 429.45 252.532 427.767 251.698 426.3C250.898 424.8 249.798 423.633 248.398 422.8C246.998 421.967 245.382 421.55 243.548 421.55C241.748 421.55 240.132 421.967 238.698 422.8C237.265 423.633 236.148 424.8 235.348 426.3C234.548 427.8 234.148 429.517 234.148 431.45V432C234.148 434 234.582 435.767 235.448 437.3C236.348 438.8 237.582 439.983 239.148 440.85C240.748 441.683 242.565 442.1 244.598 442.1C246.198 442.1 247.682 441.817 249.048 441.25C250.448 440.683 251.648 439.817 252.648 438.65L254.648 440.95C253.482 442.35 252.015 443.417 250.248 444.15C248.515 444.883 246.598 445.25 244.498 445.25ZM276.81 454.95C275.577 454.95 274.393 454.75 273.26 454.35C272.16 453.95 271.21 453.35 270.41 452.55L272.06 449.9C272.727 450.533 273.443 451.017 274.21 451.35C275.01 451.717 275.893 451.9 276.86 451.9C278.027 451.9 279.027 451.567 279.86 450.9C280.727 450.267 281.543 449.133 282.31 447.5L284.01 443.65L284.41 443.1L295.21 418.75H298.71L285.56 448.15C284.827 449.85 284.01 451.2 283.11 452.2C282.243 453.2 281.293 453.9 280.26 454.3C279.227 454.733 278.077 454.95 276.81 454.95ZM283.81 445.75L271.71 418.75H275.41L286.11 442.85L283.81 445.75ZM313.677 445.25C311.144 445.25 308.861 444.683 306.827 443.55C304.827 442.383 303.244 440.8 302.077 438.8C300.911 436.767 300.327 434.45 300.327 431.85C300.327 429.217 300.911 426.9 302.077 424.9C303.244 422.9 304.827 421.333 306.827 420.2C308.827 419.067 311.111 418.5 313.677 418.5C316.277 418.5 318.577 419.067 320.577 420.2C322.611 421.333 324.194 422.9 325.327 424.9C326.494 426.9 327.077 429.217 327.077 431.85C327.077 434.45 326.494 436.767 325.327 438.8C324.194 440.8 322.611 442.383 320.577 443.55C318.544 444.683 316.244 445.25 313.677 445.25ZM313.677 442.1C315.577 442.1 317.261 441.683 318.727 440.85C320.194 439.983 321.344 438.783 322.177 437.25C323.044 435.683 323.477 433.883 323.477 431.85C323.477 429.783 323.044 427.983 322.177 426.45C321.344 424.917 320.194 423.733 318.727 422.9C317.261 422.033 315.594 421.6 313.727 421.6C311.861 421.6 310.194 422.033 308.727 422.9C307.261 423.733 306.094 424.917 305.227 426.45C304.361 427.983 303.927 429.783 303.927 431.85C303.927 433.883 304.361 435.683 305.227 437.25C306.094 438.783 307.261 439.983 308.727 440.85C310.194 441.683 311.844 442.1 313.677 442.1ZM345.175 445.25C342.942 445.25 340.992 444.833 339.325 444C337.658 443.167 336.358 441.917 335.425 440.25C334.525 438.583 334.075 436.5 334.075 434V418.75H337.625V433.6C337.625 436.4 338.308 438.517 339.675 439.95C341.075 441.35 343.025 442.05 345.525 442.05C347.358 442.05 348.942 441.683 350.275 440.95C351.642 440.183 352.675 439.083 353.375 437.65C354.108 436.217 354.475 434.5 354.475 432.5V418.75H358.025V445H354.625V437.8L355.175 439.1C354.342 441.033 353.042 442.55 351.275 443.65C349.542 444.717 347.508 445.25 345.175 445.25ZM388.055 445.25C385.888 445.25 383.838 444.95 381.905 444.35C379.971 443.717 378.455 442.933 377.355 442L378.955 439.2C380.021 440 381.388 440.7 383.055 441.3C384.721 441.867 386.471 442.15 388.305 442.15C390.805 442.15 392.605 441.767 393.705 441C394.805 440.2 395.355 439.15 395.355 437.85C395.355 436.883 395.038 436.133 394.405 435.6C393.805 435.033 393.005 434.617 392.005 434.35C391.005 434.05 389.888 433.8 388.655 433.6C387.421 433.4 386.188 433.167 384.955 432.9C383.755 432.633 382.655 432.25 381.655 431.75C380.655 431.217 379.838 430.5 379.205 429.6C378.605 428.7 378.305 427.5 378.305 426C378.305 424.567 378.705 423.283 379.505 422.15C380.305 421.017 381.471 420.133 383.005 419.5C384.571 418.833 386.471 418.5 388.705 418.5C390.405 418.5 392.105 418.733 393.805 419.2C395.505 419.633 396.905 420.217 398.005 420.95L396.455 423.8C395.288 423 394.038 422.433 392.705 422.1C391.371 421.733 390.038 421.55 388.705 421.55C386.338 421.55 384.588 421.967 383.455 422.8C382.355 423.6 381.805 424.633 381.805 425.9C381.805 426.9 382.105 427.683 382.705 428.25C383.338 428.817 384.155 429.267 385.155 429.6C386.188 429.9 387.305 430.15 388.505 430.35C389.738 430.55 390.955 430.8 392.155 431.1C393.388 431.367 394.505 431.75 395.505 432.25C396.538 432.717 397.355 433.4 397.955 434.3C398.588 435.167 398.905 436.317 398.905 437.75C398.905 439.283 398.471 440.617 397.605 441.75C396.771 442.85 395.538 443.717 393.905 444.35C392.305 444.95 390.355 445.25 388.055 445.25ZM410.28 445L400.38 418.75H403.78L412.78 443.1H411.23L420.48 418.75H423.53L432.68 443.1H431.13L440.28 418.75H443.53L433.58 445H430.23L421.43 422.1H422.48L413.63 445H410.28ZM464.545 445V439.2L464.395 438.25V428.55C464.395 426.317 463.761 424.6 462.495 423.4C461.261 422.2 459.411 421.6 456.945 421.6C455.245 421.6 453.628 421.883 452.095 422.45C450.561 423.017 449.261 423.767 448.195 424.7L446.595 422.05C447.928 420.917 449.528 420.05 451.395 419.45C453.261 418.817 455.228 418.5 457.295 418.5C460.695 418.5 463.311 419.35 465.145 421.05C467.011 422.717 467.945 425.267 467.945 428.7V445H464.545ZM455.495 445.25C453.528 445.25 451.811 444.933 450.345 444.3C448.911 443.633 447.811 442.733 447.045 441.6C446.278 440.433 445.895 439.1 445.895 437.6C445.895 436.233 446.211 435 446.845 433.9C447.511 432.767 448.578 431.867 450.045 431.2C451.545 430.5 453.545 430.15 456.045 430.15H465.095V432.8H456.145C453.611 432.8 451.845 433.25 450.845 434.15C449.878 435.05 449.395 436.167 449.395 437.5C449.395 439 449.978 440.2 451.145 441.1C452.311 442 453.945 442.45 456.045 442.45C458.045 442.45 459.761 442 461.195 441.1C462.661 440.167 463.728 438.833 464.395 437.1L465.195 439.55C464.528 441.283 463.361 442.667 461.695 443.7C460.061 444.733 457.995 445.25 455.495 445.25ZM491.137 445.25C488.87 445.25 486.82 444.733 484.987 443.7C483.153 442.633 481.687 441.117 480.587 439.15C479.52 437.15 478.987 434.717 478.987 431.85C478.987 428.983 479.52 426.567 480.587 424.6C481.653 422.6 483.103 421.083 484.937 420.05C486.77 419.017 488.837 418.5 491.137 418.5C493.637 418.5 495.87 419.067 497.837 420.2C499.837 421.3 501.403 422.867 502.537 424.9C503.67 426.9 504.237 429.217 504.237 431.85C504.237 434.517 503.67 436.85 502.537 438.85C501.403 440.85 499.837 442.417 497.837 443.55C495.87 444.683 493.637 445.25 491.137 445.25ZM477.587 454.7V418.75H480.987V426.65L480.637 431.9L481.137 437.2V454.7H477.587ZM490.887 442.1C492.753 442.1 494.42 441.683 495.887 440.85C497.353 439.983 498.52 438.783 499.387 437.25C500.253 435.683 500.687 433.883 500.687 431.85C500.687 429.817 500.253 428.033 499.387 426.5C498.52 424.967 497.353 423.767 495.887 422.9C494.42 422.033 492.753 421.6 490.887 421.6C489.02 421.6 487.337 422.033 485.837 422.9C484.37 423.767 483.203 424.967 482.337 426.5C481.503 428.033 481.087 429.817 481.087 431.85C481.087 433.883 481.503 435.683 482.337 437.25C483.203 438.783 484.37 439.983 485.837 440.85C487.337 441.683 489.02 442.1 490.887 442.1ZM524.759 454.95C523.526 454.95 522.343 454.75 521.209 454.35C520.109 453.95 519.159 453.35 518.359 452.55L520.009 449.9C520.676 450.533 521.393 451.017 522.159 451.35C522.959 451.717 523.843 451.9 524.809 451.9C525.976 451.9 526.976 451.567 527.809 450.9C528.676 450.267 529.493 449.133 530.259 447.5L531.959 443.65L532.359 443.1L543.159 418.75H546.659L533.509 448.15C532.776 449.85 531.959 451.2 531.059 452.2C530.193 453.2 529.243 453.9 528.209 454.3C527.176 454.733 526.026 454.95 524.759 454.95ZM531.759 445.75L519.659 418.75H523.359L534.059 442.85L531.759 445.75ZM561.627 445.25C559.093 445.25 556.81 444.683 554.777 443.55C552.777 442.383 551.193 440.8 550.027 438.8C548.86 436.767 548.277 434.45 548.277 431.85C548.277 429.217 548.86 426.9 550.027 424.9C551.193 422.9 552.777 421.333 554.777 420.2C556.777 419.067 559.06 418.5 561.627 418.5C564.227 418.5 566.527 419.067 568.527 420.2C570.56 421.333 572.143 422.9 573.277 424.9C574.443 426.9 575.027 429.217 575.027 431.85C575.027 434.45 574.443 436.767 573.277 438.8C572.143 440.8 570.56 442.383 568.527 443.55C566.493 444.683 564.193 445.25 561.627 445.25ZM561.627 442.1C563.527 442.1 565.21 441.683 566.677 440.85C568.143 439.983 569.293 438.783 570.127 437.25C570.993 435.683 571.427 433.883 571.427 431.85C571.427 429.783 570.993 427.983 570.127 426.45C569.293 424.917 568.143 423.733 566.677 422.9C565.21 422.033 563.543 421.6 561.677 421.6C559.81 421.6 558.143 422.033 556.677 422.9C555.21 423.733 554.043 424.917 553.177 426.45C552.31 427.983 551.877 429.783 551.877 431.85C551.877 433.883 552.31 435.683 553.177 437.25C554.043 438.783 555.21 439.983 556.677 440.85C558.143 441.683 559.793 442.1 561.627 442.1ZM593.124 445.25C590.891 445.25 588.941 444.833 587.274 444C585.608 443.167 584.308 441.917 583.374 440.25C582.474 438.583 582.024 436.5 582.024 434V418.75H585.574V433.6C585.574 436.4 586.258 438.517 587.624 439.95C589.024 441.35 590.974 442.05 593.474 442.05C595.308 442.05 596.891 441.683 598.224 440.95C599.591 440.183 600.624 439.083 601.324 437.65C602.058 436.217 602.424 434.5 602.424 432.5V418.75H605.974V445H602.574V437.8L603.124 439.1C602.291 441.033 600.991 442.55 599.224 443.65C597.491 444.717 595.458 445.25 593.124 445.25ZM615.868 445V418.75H619.268V425.9L618.918 424.65C619.651 422.65 620.885 421.133 622.618 420.1C624.351 419.033 626.501 418.5 629.068 418.5V421.95C628.935 421.95 628.801 421.95 628.668 421.95C628.535 421.917 628.401 421.9 628.268 421.9C625.501 421.9 623.335 422.75 621.768 424.45C620.201 426.117 619.418 428.5 619.418 431.6V445H615.868ZM658.372 451V404H660.872V451H658.372ZM659.422 445.3C656.822 445.3 654.322 444.883 651.922 444.05C649.556 443.183 647.722 442.083 646.422 440.75L647.872 437.9C649.106 439.1 650.756 440.117 652.822 440.95C654.922 441.75 657.122 442.15 659.422 442.15C661.622 442.15 663.406 441.883 664.772 441.35C666.172 440.783 667.189 440.033 667.822 439.1C668.489 438.167 668.822 437.133 668.822 436C668.822 434.633 668.422 433.533 667.622 432.7C666.856 431.867 665.839 431.217 664.572 430.75C663.306 430.25 661.906 429.817 660.372 429.45C658.839 429.083 657.306 428.7 655.772 428.3C654.239 427.867 652.822 427.3 651.522 426.6C650.256 425.9 649.222 424.983 648.422 423.85C647.656 422.683 647.272 421.167 647.272 419.3C647.272 417.567 647.722 415.983 648.622 414.55C649.556 413.083 650.972 411.917 652.872 411.05C654.772 410.15 657.206 409.7 660.172 409.7C662.139 409.7 664.089 409.983 666.022 410.55C667.956 411.083 669.622 411.833 671.022 412.8L669.772 415.75C668.272 414.75 666.672 414.017 664.972 413.55C663.306 413.083 661.689 412.85 660.122 412.85C658.022 412.85 656.289 413.133 654.922 413.7C653.556 414.267 652.539 415.033 651.872 416C651.239 416.933 650.922 418 650.922 419.2C650.922 420.567 651.306 421.667 652.072 422.5C652.872 423.333 653.906 423.983 655.172 424.45C656.472 424.917 657.889 425.333 659.422 425.7C660.956 426.067 662.472 426.467 663.972 426.9C665.506 427.333 666.906 427.9 668.172 428.6C669.472 429.267 670.506 430.167 671.272 431.3C672.072 432.433 672.472 433.917 672.472 435.75C672.472 437.45 672.006 439.033 671.072 440.5C670.139 441.933 668.706 443.1 666.772 444C664.872 444.867 662.422 445.3 659.422 445.3ZM690.184 445.3C687.584 445.3 685.084 444.883 682.684 444.05C680.317 443.183 678.484 442.083 677.184 440.75L678.634 437.9C679.867 439.1 681.517 440.117 683.584 440.95C685.684 441.75 687.884 442.15 690.184 442.15C692.384 442.15 694.167 441.883 695.534 441.35C696.934 440.783 697.951 440.033 698.584 439.1C699.251 438.167 699.584 437.133 699.584 436C699.584 434.633 699.184 433.533 698.384 432.7C697.617 431.867 696.601 431.217 695.334 430.75C694.067 430.25 692.667 429.817 691.134 429.45C689.601 429.083 688.067 428.7 686.534 428.3C685.001 427.867 683.584 427.3 682.284 426.6C681.017 425.9 679.984 424.983 679.184 423.85C678.417 422.683 678.034 421.167 678.034 419.3C678.034 417.567 678.484 415.983 679.384 414.55C680.317 413.083 681.734 411.917 683.634 411.05C685.534 410.15 687.967 409.7 690.934 409.7C692.901 409.7 694.851 409.983 696.784 410.55C698.717 411.083 700.384 411.833 701.784 412.8L700.534 415.75C699.034 414.75 697.434 414.017 695.734 413.55C694.067 413.083 692.451 412.85 690.884 412.85C688.784 412.85 687.051 413.133 685.684 413.7C684.317 414.267 683.301 415.033 682.634 416C682.001 416.933 681.684 418 681.684 419.2C681.684 420.567 682.067 421.667 682.834 422.5C683.634 423.333 684.667 423.983 685.934 424.45C687.234 424.917 688.651 425.333 690.184 425.7C691.717 426.067 693.234 426.467 694.734 426.9C696.267 427.333 697.667 427.9 698.934 428.6C700.234 429.267 701.267 430.167 702.034 431.3C702.834 432.433 703.234 433.917 703.234 435.75C703.234 437.45 702.767 439.033 701.834 440.5C700.901 441.933 699.467 443.1 697.534 444C695.634 444.867 693.184 445.3 690.184 445.3ZM726.596 445.3C723.962 445.3 721.512 444.867 719.246 444C717.012 443.1 715.062 441.85 713.396 440.25C711.762 438.617 710.479 436.733 709.546 434.6C708.646 432.433 708.196 430.067 708.196 427.5C708.196 424.933 708.646 422.583 709.546 420.45C710.479 418.283 711.762 416.4 713.396 414.8C715.062 413.167 717.012 411.917 719.246 411.05C721.479 410.15 723.929 409.7 726.596 409.7C729.229 409.7 731.662 410.15 733.896 411.05C736.129 411.917 738.062 413.15 739.696 414.75C741.362 416.35 742.646 418.233 743.546 420.4C744.479 422.567 744.946 424.933 744.946 427.5C744.946 430.067 744.479 432.433 743.546 434.6C742.646 436.767 741.362 438.65 739.696 440.25C738.062 441.85 736.129 443.1 733.896 444C731.662 444.867 729.229 445.3 726.596 445.3ZM726.596 442C728.696 442 730.629 441.65 732.396 440.95C734.196 440.217 735.746 439.2 737.046 437.9C738.379 436.567 739.412 435.033 740.146 433.3C740.879 431.533 741.246 429.6 741.246 427.5C741.246 425.4 740.879 423.483 740.146 421.75C739.412 419.983 738.379 418.45 737.046 417.15C735.746 415.817 734.196 414.8 732.396 414.1C730.629 413.367 728.696 413 726.596 413C724.496 413 722.546 413.367 720.746 414.1C718.946 414.8 717.379 415.817 716.046 417.15C714.746 418.45 713.712 419.983 712.946 421.75C712.212 423.483 711.846 425.4 711.846 427.5C711.846 429.567 712.212 431.483 712.946 433.25C713.712 435.017 714.746 436.567 716.046 437.9C717.379 439.2 718.946 440.217 720.746 440.95C722.546 441.65 724.496 442 726.596 442ZM753.239 445V410H756.939V441.8H776.539V445H753.239ZM795.618 445V415.45C795.618 413.117 796.302 411.233 797.668 409.8C799.035 408.367 801.002 407.65 803.568 407.65C804.568 407.65 805.535 407.783 806.468 408.05C807.402 408.317 808.185 408.733 808.818 409.3L807.618 411.95C807.118 411.517 806.535 411.2 805.868 411C805.202 410.767 804.485 410.65 803.718 410.65C802.218 410.65 801.068 411.067 800.268 411.9C799.468 412.733 799.068 413.967 799.068 415.6V419.6L799.168 421.25V445H795.618ZM790.918 421.7V418.75H807.168V421.7H790.918ZM822.222 445.25C819.689 445.25 817.406 444.683 815.372 443.55C813.372 442.383 811.789 440.8 810.622 438.8C809.456 436.767 808.872 434.45 808.872 431.85C808.872 429.217 809.456 426.9 810.622 424.9C811.789 422.9 813.372 421.333 815.372 420.2C817.372 419.067 819.656 418.5 822.222 418.5C824.822 418.5 827.122 419.067 829.122 420.2C831.156 421.333 832.739 422.9 833.872 424.9C835.039 426.9 835.622 429.217 835.622 431.85C835.622 434.45 835.039 436.767 833.872 438.8C832.739 440.8 831.156 442.383 829.122 443.55C827.089 444.683 824.789 445.25 822.222 445.25ZM822.222 442.1C824.122 442.1 825.806 441.683 827.272 440.85C828.739 439.983 829.889 438.783 830.722 437.25C831.589 435.683 832.022 433.883 832.022 431.85C832.022 429.783 831.589 427.983 830.722 426.45C829.889 424.917 828.739 423.733 827.272 422.9C825.806 422.033 824.139 421.6 822.272 421.6C820.406 421.6 818.739 422.033 817.272 422.9C815.806 423.733 814.639 424.917 813.772 426.45C812.906 427.983 812.472 429.783 812.472 431.85C812.472 433.883 812.906 435.683 813.772 437.25C814.639 438.783 815.806 439.983 817.272 440.85C818.739 441.683 820.389 442.1 822.222 442.1ZM842.87 445V418.75H846.27V425.9L845.92 424.65C846.653 422.65 847.887 421.133 849.62 420.1C851.353 419.033 853.503 418.5 856.07 418.5V421.95C855.937 421.95 855.803 421.95 855.67 421.95C855.537 421.917 855.403 421.9 855.27 421.9C852.503 421.9 850.337 422.75 848.77 424.45C847.203 426.117 846.42 428.5 846.42 431.6V445H842.87ZM885.374 451V404H887.874V451H885.374ZM886.424 445.3C883.824 445.3 881.324 444.883 878.924 444.05C876.558 443.183 874.724 442.083 873.424 440.75L874.874 437.9C876.108 439.1 877.758 440.117 879.824 440.95C881.924 441.75 884.124 442.15 886.424 442.15C888.624 442.15 890.408 441.883 891.774 441.35C893.174 440.783 894.191 440.033 894.824 439.1C895.491 438.167 895.824 437.133 895.824 436C895.824 434.633 895.424 433.533 894.624 432.7C893.858 431.867 892.841 431.217 891.574 430.75C890.308 430.25 888.908 429.817 887.374 429.45C885.841 429.083 884.308 428.7 882.774 428.3C881.241 427.867 879.824 427.3 878.524 426.6C877.258 425.9 876.224 424.983 875.424 423.85C874.658 422.683 874.274 421.167 874.274 419.3C874.274 417.567 874.724 415.983 875.624 414.55C876.558 413.083 877.974 411.917 879.874 411.05C881.774 410.15 884.208 409.7 887.174 409.7C889.141 409.7 891.091 409.983 893.024 410.55C894.958 411.083 896.624 411.833 898.024 412.8L896.774 415.75C895.274 414.75 893.674 414.017 891.974 413.55C890.308 413.083 888.691 412.85 887.124 412.85C885.024 412.85 883.291 413.133 881.924 413.7C880.558 414.267 879.541 415.033 878.874 416C878.241 416.933 877.924 418 877.924 419.2C877.924 420.567 878.308 421.667 879.074 422.5C879.874 423.333 880.908 423.983 882.174 424.45C883.474 424.917 884.891 425.333 886.424 425.7C887.958 426.067 889.474 426.467 890.974 426.9C892.508 427.333 893.908 427.9 895.174 428.6C896.474 429.267 897.508 430.167 898.274 431.3C899.074 432.433 899.474 433.917 899.474 435.75C899.474 437.45 899.008 439.033 898.074 440.5C897.141 441.933 895.708 443.1 893.774 444C891.874 444.867 889.424 445.3 886.424 445.3ZM907.536 445V410H922.636C926.536 410 929.553 410.783 931.686 412.35C933.853 413.917 934.936 416.133 934.936 419C934.936 420.9 934.486 422.5 933.586 423.8C932.719 425.1 931.519 426.083 929.986 426.75C928.486 427.417 926.836 427.75 925.036 427.75L925.886 426.55C928.119 426.55 930.036 426.9 931.636 427.6C933.269 428.267 934.536 429.283 935.436 430.65C936.336 431.983 936.786 433.65 936.786 435.65C936.786 438.617 935.686 440.917 933.486 442.55C931.319 444.183 928.036 445 923.636 445H907.536ZM911.236 441.95H923.586C926.653 441.95 929.003 441.433 930.636 440.4C932.269 439.333 933.086 437.65 933.086 435.35C933.086 433.083 932.269 431.433 930.636 430.4C929.003 429.333 926.653 428.8 923.586 428.8H910.836V425.75H922.386C925.186 425.75 927.353 425.217 928.886 424.15C930.453 423.083 931.236 421.5 931.236 419.4C931.236 417.267 930.453 415.683 928.886 414.65C927.353 413.583 925.186 413.05 922.386 413.05H911.236V441.95ZM960.531 445.3C957.898 445.3 955.448 444.867 953.181 444C950.948 443.1 948.998 441.85 947.331 440.25C945.698 438.617 944.415 436.733 943.481 434.6C942.581 432.433 942.131 430.067 942.131 427.5C942.131 424.933 942.581 422.583 943.481 420.45C944.415 418.283 945.698 416.4 947.331 414.8C948.998 413.167 950.948 411.917 953.181 411.05C955.415 410.15 957.865 409.7 960.531 409.7C963.165 409.7 965.598 410.15 967.831 411.05C970.065 411.917 971.998 413.15 973.631 414.75C975.298 416.35 976.581 418.233 977.481 420.4C978.415 422.567 978.881 424.933 978.881 427.5C978.881 430.067 978.415 432.433 977.481 434.6C976.581 436.767 975.298 438.65 973.631 440.25C971.998 441.85 970.065 443.1 967.831 444C965.598 444.867 963.165 445.3 960.531 445.3ZM960.531 442C962.631 442 964.565 441.65 966.331 440.95C968.131 440.217 969.681 439.2 970.981 437.9C972.315 436.567 973.348 435.033 974.081 433.3C974.815 431.533 975.181 429.6 975.181 427.5C975.181 425.4 974.815 423.483 974.081 421.75C973.348 419.983 972.315 418.45 970.981 417.15C969.681 415.817 968.131 414.8 966.331 414.1C964.565 413.367 962.631 413 960.531 413C958.431 413 956.481 413.367 954.681 414.1C952.881 414.8 951.315 415.817 949.981 417.15C948.681 418.45 947.648 419.983 946.881 421.75C946.148 423.483 945.781 425.4 945.781 427.5C945.781 429.567 946.148 431.483 946.881 433.25C947.648 435.017 948.681 436.567 949.981 437.9C951.315 439.2 952.881 440.217 954.681 440.95C956.481 441.65 958.431 442 960.531 442ZM987.175 445V410H990.875V441.8H1010.47V445H987.175ZM1016.62 445V410H1020.32V445H1016.62ZM1031.31 445.25C1030.57 445.25 1029.94 444.983 1029.41 444.45C1028.91 443.917 1028.66 443.267 1028.66 442.5C1028.66 441.7 1028.91 441.05 1029.41 440.55C1029.94 440.05 1030.57 439.8 1031.31 439.8C1032.04 439.8 1032.66 440.05 1033.16 440.55C1033.69 441.05 1033.96 441.7 1033.96 442.5C1033.96 443.267 1033.69 443.917 1033.16 444.45C1032.66 444.983 1032.04 445.25 1031.31 445.25Z" fill="#460036"/>
</svg>
