<svg width="62" height="62" viewBox="0 0 62 62" fill="none" xmlns="http://www.w3.org/2000/svg">
<g clip-path="url(#clip0_358_93)">
<path fill-rule="evenodd" clip-rule="evenodd" d="M51.0905 11.4442C51.7289 11.1755 52.4276 11.0828 53.114 11.1758C53.8004 11.2688 54.4492 11.5441 54.9931 11.9729C55.537 12.4018 55.956 12.9686 56.2065 13.6144C56.4569 14.2601 56.5298 14.9612 56.4173 15.6447L50.5583 51.1836C49.99 54.6117 46.2287 56.5776 43.0848 54.87C40.4549 53.4414 36.5489 51.2404 33.0356 48.9438C31.2789 47.7943 25.8978 44.113 26.5592 41.4935C27.1275 39.2538 36.1692 30.8373 41.3358 25.8333C43.3638 23.8674 42.4389 22.7333 40.0442 24.5417C34.0973 29.0315 24.5493 35.8593 21.3925 37.7813C18.6077 39.4759 17.1558 39.7653 15.4198 39.4759C12.2527 38.9489 9.31542 38.1326 6.91809 37.138C3.67859 35.7947 3.83617 31.341 6.9155 30.0442L51.0905 11.4442Z" fill="white"/>
</g>
<defs>
<clipPath id="clip0_358_93">
<rect width="62" height="62" fill="white"/>
</clipPath>
</defs>
</svg>
