<svg width="50" height="58" viewBox="0 0 50 58" fill="none" xmlns="http://www.w3.org/2000/svg">
<path fill-rule="evenodd" clip-rule="evenodd" d="M18.5938 3.27963C15.1688 5.07951 12.3667 6.60256 12.3673 6.66451C12.3688 6.82439 20.5874 11.0233 20.8791 11.013C21.0118 11.0086 21.9744 10.5615 23.0181 10.0198L24.9161 9.03501L26.9889 10.1099L29.0615 11.1849L32.456 9.64619C37.5707 7.32759 38.1019 7.07352 38.0186 6.98815C37.9082 6.8749 36.0736 5.88067 31.0964 3.23722C28.6909 1.95961 26.3562 0.706961 25.908 0.453487C25.4599 0.200013 25.032 -0.0038906 24.9573 5.63487e-05C24.8826 0.00400329 22.0189 1.47983 18.5938 3.27963ZM3.57182 11.1271L0.00643236 12.985V21.1388C0.00643236 25.6235 0.0532494 29.2926 0.110676 29.2926C0.167905 29.2926 1.92208 28.5255 4.00875 27.5879L7.80272 25.8832V17.2885L9.6567 18.3075C11.0854 19.092 12.5149 19.8749 13.9452 20.6562L16.3797 21.9859L17.463 21.4918C18.1424 21.1814 18.8204 20.8679 19.4971 20.5515C20.02 20.3058 21.3035 19.7226 22.3493 19.2552C23.3952 18.7876 24.3633 18.3174 24.5005 18.2102C24.6829 18.0678 22.4593 16.8282 16.2761 13.625C11.6153 11.2105 7.65232 9.24266 7.46956 9.2521C7.28681 9.26153 5.53283 10.1052 3.57182 11.1271ZM38.6612 11.6488C36.233 12.7547 34.2445 13.7037 34.2422 13.7578C34.2401 13.8119 35.5636 14.6058 37.1835 15.5217C38.8033 16.4379 40.1286 17.2364 40.1286 17.2966C40.1286 17.3566 38.6952 18.0572 36.9436 18.8538C35.1917 19.6502 30.7636 21.6676 27.1032 23.3369L14.8383 28.9296C11.7531 30.3366 8.97215 31.6048 8.65842 31.7481C2.3567 34.626 0.624602 35.4245 0.386737 35.5616C0.147546 35.6996 0.0933687 36.5014 0.0507958 40.5255L0 45.325L3.18833 46.9638L6.37659 48.6026L10.7976 46.5898C13.2292 45.4828 15.2186 44.5191 15.2186 44.4481C15.2186 44.3774 14.7693 44.082 14.2204 43.7915C13.6712 43.5011 12.5375 42.8581 11.7008 42.3623C10.8642 41.8666 10.03 41.4117 9.84682 41.3514C9.66373 41.2912 9.51658 41.186 9.51956 41.1174C9.52261 41.0489 11.4694 40.1161 13.8456 39.0442C18.4607 36.9625 21.9926 35.3581 29.5751 31.8989C32.9658 30.3524 36.3568 28.8069 39.7483 27.2623C42.7289 25.9051 46.1944 24.3199 47.4495 23.7398L49.7313 22.685L49.782 17.8309L49.833 12.9769L46.5993 11.3025C44.8206 10.3817 43.3003 9.63047 43.2206 9.63321C43.141 9.63575 41.0893 10.5427 38.6612 11.6488ZM48.8649 29.1607C48.3884 29.3955 47.4472 29.8351 46.7733 30.1376C46.0994 30.44 44.8206 31.0221 43.9316 31.4313L42.3153 32.175L42.2785 36.4365C42.2581 38.7803 42.1726 40.6875 42.0883 40.6751C41.897 40.6464 38.8677 39.0792 35.8226 37.4331C33.6248 36.2452 33.4867 36.1979 32.9703 36.456C32.6718 36.6052 30.8872 37.4126 29.0047 38.2505C27.1222 39.0882 25.5206 39.8284 25.4452 39.8954C25.3701 39.9623 29.1589 42.0339 33.865 44.4992L42.4213 48.9816L46.0764 47.0741C48.0865 46.0252 49.7958 45.0683 49.8745 44.948C50.0517 44.6774 50.0365 28.6966 49.8591 28.7182C49.7889 28.7267 49.3415 28.9259 48.8649 29.1607ZM28.6244 47.9181C27.9904 48.1931 27.3566 48.4684 26.7229 48.7442C24.8094 49.5794 25.1844 49.6071 22.9078 48.4638C21.3916 47.7024 20.738 47.4674 20.4543 47.5815C20.2415 47.667 18.4102 48.4982 16.3843 49.4285C14.3586 50.3588 12.6308 51.12 12.5449 51.12C11.695 51.12 13.108 51.9717 18.5604 54.7463L24.9548 58L27.6453 56.66C29.1251 55.923 32.1097 54.4472 34.278 53.3805C36.4461 52.3135 38.1932 51.4128 38.1606 51.3788C38.1276 51.345 36.3109 50.4039 34.1232 49.2875L30.1456 47.258L28.6244 47.9181Z" fill="white"/>
</svg>
